<svg width="28" height="28" viewBox="0 0 28 28" fill="none" xmlns="http://www.w3.org/2000/svg">
<g clip-path="url(#clip0_9_2020)">
<path d="M20.6732 27.3499C20.0113 27.2073 19.3408 27.0968 18.6899 26.9153C17.3475 26.541 16.0981 25.939 14.8956 25.2444C11.4856 23.2746 8.57148 20.7104 5.98557 17.7594C4.30812 15.845 2.84246 13.7829 1.71188 11.4956C1.01589 10.0885 0.468337 8.62762 0.280997 7.05796C0.163565 6.07236 0.195592 5.09261 0.679095 4.1907C0.831309 3.90659 1.02967 3.63556 1.25386 3.40414C2.04179 2.59211 2.85761 1.80796 3.6483 0.998684C4.74513 -0.123635 6.44807 -0.00826897 7.48395 1.00075C8.71853 2.20331 9.9328 3.42687 11.1419 4.65491C12.2074 5.73694 12.2153 7.35826 11.1577 8.34523C10.9318 8.55599 10.6426 8.72336 10.3533 8.83735C9.61425 9.12903 9.03088 9.57259 8.70923 10.3171C8.49503 10.8134 8.46576 11.3193 8.60592 11.8431C8.99988 13.317 9.83706 14.5302 10.8433 15.6398C11.8902 16.7941 13.0763 17.7784 14.4865 18.4647C15.1077 18.7671 15.7472 19.0353 16.4646 18.942C17.4371 18.8153 18.1771 18.3462 18.5618 17.4192C18.7998 16.8454 19.0804 16.3199 19.6273 15.9776C20.6515 15.3367 21.9133 15.4531 22.8176 16.3334C24.0904 17.5728 25.3494 18.8266 26.5864 20.1015C27.5999 21.1463 27.562 22.8121 26.5344 23.8576C25.7227 24.6834 24.8969 25.4951 24.0797 26.3151C23.5001 26.8964 22.788 27.1908 21.987 27.2996C21.9195 27.3089 21.854 27.333 21.7876 27.3499C21.4156 27.3499 21.0444 27.3499 20.6732 27.3499Z" fill="white"/>
</g>
<defs>
<clipPath id="clip0_9_2020">
<rect width="27.55" height="27.55" fill="white"/>
</clipPath>
</defs>
</svg>
