<svg width="200" height="200" viewBox="0 0 200 200" fill="none" xmlns="http://www.w3.org/2000/svg">
<path d="M159.426 159.418C152.686 164.111 140.781 163.76 140.781 163.76H81.6103C78.4836 163.76 75.4177 162.896 72.757 161.248C72.757 161.248 61.1687 154.103 49.5129 146.925C81.1983 146.202 121.683 151.132 159.426 159.418Z" fill="#CCD6D6"/>
<path d="M105.955 94.7303C109.257 108.507 112.539 119.48 114.802 126.517C131.948 125.774 141.773 131.143 141.773 131.143L100.438 68.4474C101.235 72.8369 102.058 77.0981 102.916 81.1769C103.909 85.9446 104.935 90.4759 105.955 94.7303Z" fill="#FF4843"/>
<path d="M107.488 132.446C106.867 132.298 106.212 132.149 105.536 131.994L106.367 141.11C107.008 141.191 107.65 141.266 108.298 141.347L107.488 132.446Z" fill="#636363"/>
<path d="M108.298 141.347C107.657 141.266 107.009 141.191 106.367 141.11C80.3947 137.923 55.6852 136.829 36 138.578C39.9776 141.036 44.752 143.974 49.5196 146.925C81.1983 146.195 121.69 151.132 159.426 159.418C162.073 157.561 163.923 154.92 163.923 151.172C145.677 147.033 126.7 143.677 108.298 141.347Z" fill="#FFA22E"/>
<path d="M117.766 135.235C117.766 135.235 116.605 132.129 114.802 126.517C112.539 119.48 109.257 108.507 105.955 94.7303C104.935 90.4759 103.909 85.9446 102.916 81.1702C102.058 77.0981 101.235 72.8369 100.438 68.4406C98.4996 57.737 96.7911 46.169 95.5823 34C92.2665 40.2263 82.4746 58.5677 72.5206 77.2534C70.3123 81.3863 68.0973 85.5259 65.9431 89.571C55.5974 108.979 46.6226 125.821 46.6226 125.821C46.6226 125.821 64.9774 125.693 82.191 127.915C91.7398 129.144 99.6341 130.663 105.543 131.994C106.218 132.149 106.867 132.298 107.495 132.446C114.133 134.02 117.766 135.235 117.766 135.235Z" fill="#CCD6D6"/>
<path d="M105.955 94.7304C92.8203 91.5294 79.4357 89.8074 65.9431 89.571C68.1041 85.5259 70.3124 81.3863 72.5206 77.2534C82.738 77.7531 92.8946 79.0767 102.916 81.1702C103.909 85.9446 104.935 90.4759 105.955 94.7304Z" fill="#FF4843"/>
<path d="M148.628 159.418C144.691 159.418 141.044 161.167 138.106 164.132C135.169 161.167 131.522 159.418 127.585 159.418C123.641 159.418 120.001 161.167 117.064 164.132C114.126 161.167 110.48 159.418 106.543 159.418C102.599 159.418 98.9589 161.167 96.0213 164.132C93.0837 161.167 89.4371 159.418 85.5 159.418C81.563 159.418 77.9163 161.167 74.9787 164.132C72.0412 161.167 68.3945 159.418 64.4575 159.418C58.3459 159.418 52.957 163.632 49.8101 170H53.9362C56.8738 167.035 60.5204 165.286 64.4575 165.286C67.2262 165.286 69.8397 166.144 72.1627 167.69C73.1622 168.346 74.1008 169.129 74.9787 170C75.8566 169.122 76.7953 168.346 77.7948 167.69C80.1178 166.144 82.738 165.286 85.5 165.286C88.2688 165.286 90.8822 166.144 93.2053 167.69C94.2047 168.346 95.1434 169.129 96.0213 170C96.8992 169.122 97.8379 168.346 98.8373 167.69C101.16 166.144 103.781 165.286 106.543 165.286C109.311 165.286 111.925 166.144 114.248 167.69C115.247 168.346 116.186 169.129 117.064 170C117.942 169.122 118.88 168.346 119.88 167.69C122.203 166.144 124.823 165.286 127.585 165.286C130.354 165.286 132.967 166.144 135.29 167.69C136.29 168.346 137.229 169.129 138.106 170C138.984 169.122 139.923 168.346 140.922 167.69C143.245 166.144 145.859 165.286 148.628 165.286C152.565 165.286 156.211 167.042 159.149 170H163.275C160.128 163.632 154.746 159.418 148.628 159.418Z" fill="#83C6C0"/>
</svg>
