<svg width="200" height="200" viewBox="0 0 200 200" fill="none" xmlns="http://www.w3.org/2000/svg">
<path d="M150.643 83.0431C150.643 83.0431 158.23 83.4758 158.847 83.5825C159.463 83.6833 159.635 84.5428 159.054 84.9874C158.473 85.4319 156.523 86.9731 156.523 86.9731L150.643 83.0431Z" fill="#FF8C00"/>
<path d="M21 128.218C21 130.405 21.4801 132.865 24.2839 133.345C27.0877 133.825 32.5648 134.305 34.272 134.305C35.9791 134.305 167.323 134.305 169.926 134.305C172.528 134.305 176.357 132.118 178.064 129.172C179.771 126.232 179.362 123.902 179.362 121.235C179.362 118.567 176.488 115.212 176.488 113.914C176.488 112.616 176.488 106.113 176.488 104.75C176.488 103.387 174.81 100.921 172.842 99.2078C170.874 97.4947 155.895 84.2286 151.586 83.1972C147.276 82.1658 108.077 80.8736 103.086 81.01C98.0947 81.1463 94.1943 83.4047 93.2341 83.8137C92.2797 84.2227 65.5995 99.4804 64.983 99.682C64.3665 99.8894 48.4983 102.557 41.1065 104.4C33.7207 106.25 28.5874 107.133 24.5506 112.13C21.409 116.036 21 123.298 21 128.218Z" fill="#FFBB00"/>
<path d="M26.0088 110.565C25.5109 111.039 25.0249 111.561 24.5566 112.136C21.409 116.036 21 123.292 21 128.212C21 130.399 21.4801 132.859 24.2839 133.339C27.0877 133.819 32.5648 134.299 34.272 134.299C35.9791 134.299 167.323 134.299 169.926 134.299C172.528 134.299 176.357 132.112 178.064 129.166C179.771 126.226 179.362 123.896 179.362 121.229C179.362 118.561 176.488 115.206 176.488 113.908C176.488 113.393 176.488 112.059 176.488 110.553H26.0088V110.565Z" fill="url(#paint0_linear_65_869)"/>
<path d="M113.175 100.085C113.661 100.05 113.844 99.6642 113.922 99.3797C113.999 99.0952 116.34 85.6039 116.417 85.1416C116.494 84.6792 116.743 84.122 116.162 84.122V84.1161C112.884 84.122 109.814 84.1517 107.33 84.1931C105.896 84.2169 100.045 85.4261 96.3995 87.4237C92.754 89.4272 81.8293 96.7123 80.0333 98.1468C78.2372 99.5813 78.5454 102.095 81.776 102.095C83.3053 102.101 97.994 101.122 113.175 100.085Z" fill="#4F4F4F"/>
<path d="M149.606 95.7875C148.788 93.5824 143.951 86.001 140.732 85.1178C138.112 84.4005 128.8 84.1575 119.903 84.1219C119.517 84.1219 119.339 84.4243 119.286 84.857C119.233 85.2956 118.361 98.4549 118.391 99.0714C118.415 99.682 118.936 99.6879 118.954 99.6879C133.987 98.6565 147.917 97.6844 148.225 97.6844C149.262 97.6903 149.944 96.6944 149.606 95.7875Z" fill="#4F4F4F"/>
<path d="M159.712 113.677C151.153 113.677 144.218 120.612 144.218 129.172C144.218 130.974 144.538 132.693 145.107 134.305C159.303 134.305 169.226 134.305 169.926 134.305C171.372 134.305 173.204 133.624 174.84 132.515C175.077 131.436 175.207 130.322 175.207 129.178C175.207 120.612 168.272 113.677 159.712 113.677Z" fill="#FF8C00"/>
<path d="M63.501 134.305C64.0641 132.699 64.3901 130.974 64.3901 129.172C64.3901 120.612 57.4548 113.677 48.8953 113.677C40.3358 113.677 33.4005 120.612 33.4005 129.172C33.4005 130.974 33.7206 132.693 34.2897 134.305C34.9298 134.305 46.9036 134.305 63.501 134.305Z" fill="#FF8C00"/>
<path d="M48.8954 142.308C56.15 142.308 62.031 136.426 62.031 129.172C62.031 121.917 56.15 116.036 48.8954 116.036C41.6408 116.036 35.7598 121.917 35.7598 129.172C35.7598 136.426 41.6408 142.308 48.8954 142.308Z" fill="#404040"/>
<path d="M57.8698 129.172C57.8698 134.127 53.8508 138.146 48.8953 138.146C43.9398 138.146 39.9209 134.127 39.9209 129.172C39.9209 124.216 43.9398 120.198 48.8953 120.198C53.8508 120.198 57.8698 124.216 57.8698 129.172Z" fill="#EFEFEF"/>
<path d="M159.712 142.308C166.967 142.308 172.848 136.426 172.848 129.172C172.848 121.917 166.967 116.036 159.712 116.036C152.458 116.036 146.577 121.917 146.577 129.172C146.577 136.426 152.458 142.308 159.712 142.308Z" fill="#404040"/>
<path d="M168.693 129.172C168.693 134.127 164.674 138.146 159.718 138.146C154.763 138.146 150.744 134.127 150.744 129.172C150.744 124.216 154.763 120.198 159.718 120.198C164.674 120.198 168.693 124.216 168.693 129.172Z" fill="#EFEFEF"/>
<path d="M140.252 83.4284C137.673 83.0372 112.706 82.3199 106.239 82.3199C105.421 82.3199 104.9 82.3318 104.651 82.3496C102.25 82.5511 99.707 83.4936 98.3555 84.2761C98.1895 84.3709 81.7166 93.9144 76.4825 97.5717C71.0647 101.359 67.7749 104.134 67.7215 110.773C67.6919 114.72 68.1779 117.554 68.5751 119.83C68.8537 121.43 69.0908 122.812 69.0908 124.181V129.925C69.0908 130.47 69.0908 131.602 70.5608 131.602H134.828C136.446 131.602 136.838 130.66 136.879 129.871C136.909 129.35 137.282 126.427 141.971 120.322C143.05 118.917 144.135 117.601 145.178 116.327C148.325 112.497 151.04 109.19 151.704 105.781C152.469 101.857 152.943 97.1983 148.847 91.5137C145.03 86.2203 143.068 83.8493 140.252 83.4284ZM70.5608 131.193C69.5828 131.193 69.4998 130.618 69.4998 129.931V124.187C69.4998 122.776 69.2568 121.383 68.9782 119.765C68.5869 117.506 68.1009 114.691 68.1305 110.778C68.1839 104.211 71.4263 101.608 76.7137 97.9155C81.93 94.27 98.3911 84.7325 98.557 84.6376C99.867 83.873 102.345 82.9661 104.68 82.7645C104.917 82.7467 105.439 82.7349 106.233 82.7349C108.592 82.7349 113.761 82.8653 118.581 82.9957C118.367 84.1871 116.559 90.0021 116.055 99.9843C115.729 100.453 113.584 103.843 113.435 112.521C113.329 118.935 113.471 124.21 113.566 127.702C113.607 129.166 113.637 130.328 113.643 131.199H70.5608V131.193ZM151.307 105.704C150.661 109.006 147.976 112.278 144.864 116.066C143.814 117.34 142.736 118.656 141.651 120.073C137.01 126.119 136.518 129.083 136.476 129.848C136.429 130.766 135.907 131.193 134.834 131.193H114.052C114.046 130.316 114.016 129.154 113.975 127.684C113.88 124.193 113.738 118.923 113.844 112.521C113.993 103.482 116.393 100.204 116.417 100.174L116.453 100.121V100.055C116.962 89.854 118.8 84.0034 118.984 82.9957C128.42 83.2447 138.669 83.6062 140.175 83.8315C142.836 84.2346 144.757 86.5523 148.503 91.7508C152.131 96.7656 152.261 100.808 151.307 105.704Z" fill="#FF8C00"/>
<path d="M36.6607 106.327C36.9808 106.339 37.1764 106.41 37.4195 106.499C37.8818 106.665 38.4627 106.878 40.1225 106.878C41.7822 106.878 50.9997 105.319 53.7856 104.845C65.6053 102.818 65.6646 102.622 65.7002 102.486C65.8069 102.106 64.7043 100.891 63.2224 100.038C63.0268 100.073 62.8134 100.115 62.5882 100.156C64.0819 100.879 65.0541 101.976 65.2615 102.296C63.2936 102.824 42.5587 106.463 40.1165 106.463C38.5279 106.463 37.9885 106.268 37.5558 106.108C37.2891 106.013 37.0579 105.93 36.6726 105.912C36.3169 105.9 35.5108 105.971 34.6276 106.066C33.9222 106.274 33.2346 106.487 32.5825 106.718C33.9281 106.546 36.0383 106.297 36.6607 106.327Z" fill="#FF8C00"/>
<path d="M66.7494 100.767C67.3126 101.176 68.5218 101.099 69.4406 100.559C70.3653 100.02 93.5542 85.4734 93.8624 85.2956C94.1706 85.1178 94.224 84.6021 94.0165 84.3235C93.9217 84.199 93.6075 83.9856 93.2874 83.7959C93.2696 83.8018 93.2519 83.8137 93.2341 83.8196C92.3094 84.2168 67.4726 98.4134 65.1549 99.6049C65.5876 99.919 66.3523 100.476 66.7494 100.767Z" fill="#4F4F4F"/>
<path d="M25.5821 128.49V125.55C25.5821 124.193 24.4796 123.09 23.1221 123.09H21.1957C21.0415 124.916 21.006 126.682 21.006 128.223C21.006 129.142 21.0949 130.108 21.4031 130.956H23.1281C24.4796 130.95 25.5821 129.848 25.5821 128.49Z" fill="#4F4F4F"/>
<path d="M22.3337 120.198C22.476 119.297 23.294 114.602 25.0367 112.895C26.7795 111.188 33.1754 108.585 33.7266 108.822C34.272 109.059 31.8772 113.95 30.4072 116.042C28.9371 118.123 22.1322 121.454 22.3337 120.198Z" fill="#EFEFEF"/>
<path d="M27.7871 115.793C27.5322 117.21 26.5838 118.354 25.6768 118.354C24.7699 118.354 24.2424 117.21 24.4972 115.793C24.7521 114.377 25.7005 113.233 26.6075 113.233C27.5144 113.233 28.042 114.382 27.7871 115.793Z" fill="#FF8C00"/>
<path d="M30.6325 113.007C30.4665 113.908 29.8678 114.643 29.2869 114.643C28.706 114.643 28.3681 113.914 28.5341 113.007C28.7 112.106 29.2987 111.371 29.8796 111.371C30.4606 111.371 30.7984 112.1 30.6325 113.007Z" fill="#E02B61"/>
<path d="M172.848 106.801V111.211C172.848 112.569 173.95 113.671 175.308 113.671H176.487C176.487 111.97 176.487 106.042 176.487 104.744C176.487 104.62 176.458 104.477 176.434 104.335H175.308C173.95 104.341 172.848 105.444 172.848 106.801Z" fill="#FF8C00"/>
<path d="M172.848 99.2137C171.473 98.0163 163.708 91.1462 157.697 86.7834C157.531 87.1687 157.377 87.7259 157.644 88.0935C158.088 88.7099 172.522 100.784 173.139 101.122C173.506 101.33 174.14 101.282 174.603 101.039C174.081 100.393 173.482 99.7649 172.848 99.2137Z" fill="#4F4F4F"/>
<path d="M110.359 103.814H104.2C103.495 103.814 102.92 104.389 102.92 105.094H111.639C111.639 104.389 111.07 103.814 110.359 103.814Z" fill="#FFCB3D"/>
<path d="M104.2 106.38H110.359C111.064 106.38 111.639 105.805 111.639 105.1H102.92C102.92 105.805 103.495 106.38 104.2 106.38Z" fill="#FF8C00"/>
<path d="M147.3 103.814H141.141C140.436 103.814 139.861 104.389 139.861 105.094H148.58C148.58 104.389 148.005 103.814 147.3 103.814Z" fill="#FFCB3D"/>
<path d="M141.141 106.38H147.3C148.011 106.38 148.58 105.805 148.58 105.1H139.861C139.861 105.805 140.436 106.38 141.141 106.38Z" fill="#FF8C00"/>
<defs>
<linearGradient id="paint0_linear_65_869" x1="100.205" y1="108.925" x2="100.205" y2="121.601" gradientUnits="userSpaceOnUse">
<stop stop-color="#FFD52B"/>
<stop offset="1" stop-color="#FFBB00"/>
</linearGradient>
</defs>
</svg>
