<svg width="489" height="489" viewBox="0 0 489 489" fill="none" xmlns="http://www.w3.org/2000/svg">
<path d="M244.5 478.526C350.934 478.526 437.215 429.511 437.215 369.048C437.215 308.586 350.934 259.571 244.5 259.571C138.066 259.571 51.7851 308.586 51.7851 369.048C51.7851 429.511 138.066 478.526 244.5 478.526Z" fill="#F5F5F5"/>
<path d="M324.706 438.076L180.842 355.014C175.297 351.816 175.297 343.806 180.852 340.608L195.043 331.659C200.03 328.784 206.162 328.794 211.15 331.669L355.014 414.731C360.559 417.929 360.559 425.939 355.004 429.137L340.813 438.085C335.816 440.951 329.684 440.951 324.706 438.076Z" fill="#E0E0E0"/>
<path d="M105.966 362.349C123.207 362.349 137.184 354.323 137.184 344.422C137.184 334.522 123.207 326.496 105.966 326.496C88.7252 326.496 74.7485 334.522 74.7485 344.422C74.7485 354.323 88.7252 362.349 105.966 362.349Z" fill="#E6E6E6"/>
<path d="M375.708 366.457L389.41 374.33C389.41 374.33 382.418 352.354 386.144 330.192C387.552 321.831 390.574 317.664 391.63 315.425C392.696 313.185 400.872 299.346 393.586 293.009C386.31 286.671 369.351 299.415 370.261 333.508C370.73 351.024 375.708 366.457 375.708 366.457Z" fill="#3E75A3"/>
<path opacity="0.5" d="M375.708 366.457L389.41 374.33C389.41 374.33 382.418 352.354 386.144 330.192C387.552 321.831 390.574 317.664 391.63 315.425C392.696 313.185 400.872 299.346 393.586 293.009C386.31 286.671 369.351 299.415 370.261 333.508C370.73 351.024 375.708 366.457 375.708 366.457Z" fill="black"/>
<path d="M382.075 370.603C381.88 370.603 381.694 370.486 381.616 370.281C381.567 370.134 376.334 355.836 376.51 332.853C376.677 309.752 388.745 297.39 388.872 297.273C389.068 297.077 389.371 297.077 389.567 297.273C389.762 297.459 389.762 297.772 389.567 297.967C389.449 298.085 377.655 310.192 377.488 332.862C377.322 355.66 382.486 369.801 382.535 369.948C382.633 370.202 382.496 370.486 382.251 370.574C382.193 370.594 382.134 370.603 382.075 370.603Z" fill="white"/>
<path d="M381.42 369.821L400.139 380.54C404.198 382.858 409.498 381.86 412.09 377.968C413.166 376.364 413.821 374.241 413.567 371.464C412.667 361.743 408.442 359.503 413.626 355.17C418.799 350.838 420.149 350.535 419.846 346.349C419.542 342.163 416.706 340.364 415.357 338.72C414.007 337.077 410.271 333.635 412.814 328.549C415.357 323.464 418.819 318.544 413.557 316.285C410.418 314.936 405.185 316.735 401.743 320.471C398.3 324.207 395.464 326.896 392.178 327.796C388.892 328.696 382.007 328.843 382.31 334.525C382.613 340.207 384.109 342.153 382.76 344.696C380.217 349.488 369.156 352.178 381.42 369.821Z" fill="#3E75A3"/>
<path d="M390.672 375.611C390.427 375.611 390.212 375.425 390.183 375.171C390.154 374.838 387.308 341.273 410.379 318.936C410.574 318.75 410.877 318.75 411.073 318.945C411.259 319.141 411.259 319.454 411.063 319.64C388.315 341.654 391.132 374.75 391.161 375.083C391.19 375.347 390.985 375.591 390.721 375.611C390.701 375.611 390.691 375.611 390.672 375.611Z" fill="white"/>
<path d="M394.378 346.721C394.124 346.721 393.919 346.525 393.889 346.271C393.127 337.361 386.877 332.882 386.819 332.843C386.594 332.686 386.545 332.383 386.701 332.158C386.858 331.933 387.161 331.884 387.386 332.041C387.66 332.236 394.066 336.833 394.867 346.192C394.887 346.466 394.691 346.701 394.427 346.721C394.408 346.721 394.388 346.721 394.378 346.721Z" fill="white"/>
<path d="M392.784 352.481C392.667 352.481 392.55 352.442 392.462 352.364C392.256 352.188 392.237 351.875 392.413 351.679C392.647 351.405 398.427 345.029 411.983 346.721C412.247 346.75 412.442 346.994 412.403 347.268C412.374 347.532 412.119 347.718 411.855 347.689C398.848 346.056 393.205 352.256 393.146 352.315C393.048 352.422 392.912 352.481 392.784 352.481Z" fill="white"/>
<path d="M320.315 428.149L193.791 355.102C184.862 349.948 177.624 336.119 177.624 324.217V53.2913C177.624 41.3891 184.862 35.922 193.791 41.0761L320.315 114.123C329.244 119.277 336.481 133.106 336.481 145.008V415.934C336.481 427.826 329.244 433.303 320.315 428.149Z" fill="#455A64"/>
<path d="M334.887 105.624L208.363 32.5773C204.549 30.3768 201.038 30.1225 198.28 31.4721C197.937 31.6384 197.615 31.834 197.292 32.0491L183.121 40.2937C185.967 38.592 189.703 38.7093 193.8 41.0761L320.324 114.123C329.253 119.277 336.491 133.106 336.491 145.008V415.934C336.491 422.222 334.466 426.721 331.239 428.794L345.224 420.648C348.784 418.75 351.053 414.105 351.053 407.445V136.509C351.053 124.607 343.816 110.778 334.887 105.624Z" fill="#37474F"/>
<path d="M336.481 145.008V415.934C336.481 422.222 334.456 426.721 331.229 428.794L345.214 420.648C348.774 418.75 351.043 414.105 351.043 407.445V136.509C351.043 136.5 351.043 136.5 351.043 136.49L336.471 144.949C336.481 144.969 336.481 144.989 336.481 145.008Z" fill="#263238"/>
<path d="M351.053 157.546L336.481 165.957V172.519L351.053 164.109V157.546Z" fill="#37474F"/>
<path d="M344.667 201.253C343.366 202.006 342.31 201.204 342.31 199.473V185.341C342.31 183.6 343.366 181.585 344.667 180.832C345.968 180.079 347.024 180.881 347.024 182.612V196.744C347.024 198.485 345.968 200.5 344.667 201.253Z" fill="#37474F"/>
<path d="M342.31 199.473V185.341C342.31 183.6 343.366 181.585 344.667 180.832C345.234 180.5 345.752 180.49 346.153 180.695V180.676L344.393 179.766V179.786C343.982 179.551 343.454 179.561 342.867 179.903C341.566 180.656 340.51 182.671 340.51 184.412V198.534C340.51 199.473 340.823 200.118 341.312 200.422V200.431L343.161 201.4V201.38C342.642 201.096 342.31 200.441 342.31 199.473Z" fill="#455A64"/>
<path d="M344.667 235.454C343.366 236.207 342.31 235.405 342.31 233.674V219.541C342.31 217.801 343.366 215.786 344.667 215.033C345.968 214.28 347.024 215.082 347.024 216.813V230.945C347.024 232.686 345.968 234.71 344.667 235.454Z" fill="#37474F"/>
<path d="M342.31 233.674V219.542C342.31 217.801 343.366 215.786 344.667 215.033C345.234 214.71 345.752 214.691 346.153 214.896V214.877L344.393 213.967V213.987C343.982 213.752 343.454 213.762 342.867 214.104C341.566 214.857 340.51 216.872 340.51 218.612V232.745C340.51 233.683 340.823 234.329 341.312 234.632V234.642L343.161 235.61V235.591C342.642 235.307 342.31 234.642 342.31 233.674Z" fill="#455A64"/>
<path d="M315.923 121.741L191.571 49.9367C189.282 48.6164 186.426 50.2693 186.426 52.9099V324.227C186.426 333.283 192.842 344.403 200.695 348.931L322.016 418.975C324.53 420.432 327.679 418.613 327.679 415.709V142.113C327.689 134.641 322.388 125.477 315.923 121.741Z" fill="#3E75A3"/>
<path opacity="0.9" d="M315.923 121.741L191.571 49.9367C189.282 48.6164 186.426 50.2693 186.426 52.9099V324.227C186.426 333.283 192.842 344.403 200.695 348.931L322.016 418.975C324.53 420.432 327.679 418.613 327.679 415.709V142.113C327.689 134.641 322.388 125.477 315.923 121.741Z" fill="white"/>
<path d="M228.754 68.6851L230.681 76.7927L271.894 100.558L279.014 96.7634L228.754 68.6851Z" fill="#455A64"/>
<path d="M240.872 76.5188C240.872 77.8684 239.923 78.4063 238.759 77.7413C237.595 77.0664 236.647 75.4332 236.647 74.0835C236.647 72.7339 237.595 72.196 238.759 72.861C239.923 73.5359 240.872 75.1789 240.872 76.5188Z" fill="#263238"/>
<path d="M268.637 93.6827C268.422 93.6827 268.197 93.624 267.992 93.5165L246.945 81.7511C246.309 81.399 246.084 80.5873 246.436 79.9516C246.789 79.3159 247.6 79.091 248.236 79.443L269.283 91.2084C269.918 91.5605 270.143 92.3722 269.791 93.0079C269.547 93.4382 269.097 93.6827 268.637 93.6827Z" fill="#263238"/>
<path d="M212.5 106.406C211.219 105.663 210.29 106.309 210.29 107.942C210.29 109.595 211.219 111.326 212.5 112.069C213.263 112.509 214.221 112.519 214.925 112.059L216.969 115.756C215.776 116.568 213.967 116.49 212.324 115.531C209.047 113.644 206.671 109.575 206.671 105.898C206.671 102.27 209.106 101.047 212.461 102.974C214.094 103.913 215.874 105.82 216.969 107.834L214.925 109.448C214.28 108.089 213.321 106.876 212.5 106.406Z" fill="#3E75A3"/>
<path d="M228.725 118.661C228.725 122.319 226.26 123.59 222.857 121.624C219.463 119.658 216.989 115.561 216.989 111.883C216.989 108.226 219.453 107.032 222.857 108.988C226.251 110.954 228.725 115.013 228.725 118.661ZM220.617 113.996C220.617 115.688 221.683 117.546 222.906 118.25C224.128 118.954 225.096 118.27 225.096 116.578C225.096 114.886 224.118 113.116 222.906 112.411C221.673 111.698 220.617 112.304 220.617 113.996Z" fill="#3E75A3"/>
<path d="M232.666 114.778L236.891 123.551V117.213L240.089 119.062V131.394L237.136 129.693L232.93 120.969V127.267L229.713 125.409V113.076L232.666 114.778Z" fill="#3E75A3"/>
<path d="M250.544 125.096V128.314L247.493 126.553V135.668L243.962 133.624V124.509L240.93 122.759V119.541L250.544 125.096Z" fill="#3E75A3"/>
<path d="M257.429 139.668L253.419 137.35L252.872 138.778L249.243 136.685L253.752 126.954L257.38 129.047L261.723 143.884L257.957 141.712L257.429 139.668ZM256.559 136.245L255.463 132.001L254.339 134.954L256.559 136.245Z" fill="#3E75A3"/>
<path d="M267.336 138.064C266.055 137.321 265.126 137.967 265.126 139.6C265.126 141.253 266.055 142.984 267.336 143.727C268.099 144.167 269.058 144.177 269.762 143.717L271.806 147.414C270.613 148.226 268.803 148.148 267.16 147.189C263.884 145.302 261.507 141.233 261.507 137.556C261.507 133.927 263.943 132.705 267.297 134.632C268.93 135.571 270.71 137.478 271.806 139.492L269.762 141.106C269.116 139.747 268.158 138.544 267.336 138.064Z" fill="#3E75A3"/>
<path d="M281.449 142.945V146.162L278.397 144.402V153.517L274.867 151.473V142.358L271.835 140.607V137.39L281.449 142.945Z" fill="#3E75A3"/>
<path d="M291.884 158.084C292.755 158.583 293.42 158.201 293.42 156.969V149.859L296.96 151.903V159.013C296.96 162.289 294.965 163.258 291.874 161.478C288.764 159.678 286.71 156.363 286.71 153.096V145.986L290.241 148.03V155.14C290.241 156.343 291.004 157.575 291.884 158.084Z" fill="#3E75A3"/>
<path d="M302.662 158.123C302.261 157.898 302.006 157.888 302.006 158.26C302.006 159.805 307.542 162.035 307.542 166.505C307.542 169.253 305.459 169.263 303.043 167.864C301.185 166.788 299.112 164.871 297.693 162.808L299.004 160.5C300.099 162.192 301.987 164.138 303.072 164.764C303.591 165.067 303.923 165.067 303.923 164.627C303.923 163.023 298.388 160.891 298.388 156.558C298.388 154.094 300.187 153.585 302.955 155.189C304.647 156.167 306.398 157.761 307.601 159.336L306.319 161.693C305.253 160.382 303.591 158.661 302.662 158.123Z" fill="#3E75A3"/>
<path d="M194.71 167.179C198.241 162.847 200.363 157.331 200.363 151.306C200.363 137.429 189.106 126.172 175.228 126.172C161.35 126.172 150.094 137.429 150.094 151.306C150.094 165.184 161.35 176.441 175.228 176.441C179.942 176.441 184.353 175.14 188.128 172.881L200.363 178.192L194.71 167.179Z" fill="#3E75A3"/>
<path opacity="0.4" d="M194.71 167.179C198.241 162.847 200.363 157.331 200.363 151.306C200.363 137.429 189.106 126.172 175.228 126.172C161.35 126.172 150.094 137.429 150.094 151.306C150.094 165.184 161.35 176.441 175.228 176.441C179.942 176.441 184.353 175.14 188.128 172.881L200.363 178.192L194.71 167.179Z" fill="black"/>
<path d="M165.918 149.967C165.918 149.576 165.644 149.37 165.145 149.37C164.284 149.37 163.16 149.937 162.055 150.827L160.666 148.128C162.28 147.013 163.942 146.348 165.722 146.348C168.069 146.348 169.839 147.58 169.839 149.419C169.839 150.73 168.881 151.991 167.61 153.253L165.869 154.984H170.006V157.859H161.116L161.096 155.502L165.057 151.414C165.526 150.925 165.918 150.358 165.918 149.967Z" fill="white"/>
<path d="M177.243 146.514L174.544 152.999H175.639V150.818H179.052V152.999H180.343V155.668H179.052V157.869H175.639V155.668H170.808V153.243L173.712 146.524H177.243V146.514Z" fill="white"/>
<path d="M190.847 152.216V157.859H187.209V153.272C187.209 152.529 186.788 152.06 186.162 152.06C185.448 152.06 184.998 152.627 184.998 153.478V157.859H181.36V145.869H184.998V150.28C185.595 149.37 186.514 148.862 187.678 148.862C189.536 148.852 190.847 150.182 190.847 152.216Z" fill="white"/>
<path d="M309.478 243.092V364.608C309.478 370.642 302.945 374.418 297.713 371.396L232.265 333.606L220.676 326.916C218.231 325.508 216.06 323.728 214.231 321.674C209.986 316.931 207.532 310.72 207.532 304.158V182.632C207.532 176.598 214.055 172.832 219.297 175.844L296.334 220.334C304.461 225.028 309.478 233.703 309.478 243.092Z" fill="#3E75A3"/>
<path opacity="0.5" d="M309.478 243.092V364.608C309.478 370.642 302.945 374.418 297.713 371.396L232.265 333.606L220.676 326.916C218.231 325.508 216.06 323.728 214.231 321.674C209.986 316.931 207.532 310.72 207.532 304.158V182.632C207.532 176.598 214.055 172.832 219.297 175.844L296.334 220.334C304.461 225.028 309.478 233.703 309.478 243.092Z" fill="white"/>
<path d="M271.776 314.994C271.776 314.994 284.031 335.317 275.17 358.232L232.255 333.606L271.776 314.994Z" fill="#263238"/>
<path d="M291.315 223.679C292.242 216.147 286.888 209.289 279.356 208.362C271.824 207.434 264.966 212.788 264.039 220.32C263.111 227.852 268.466 234.71 275.998 235.637C283.53 236.565 290.387 231.211 291.315 223.679Z" fill="#263238"/>
<path d="M277.742 183.463C277.742 183.463 281.957 176.588 283.258 177.116C284.549 177.644 282.417 184.138 282.417 184.138C282.417 184.138 288.794 185.468 287.6 187.052C286.407 188.646 278.622 188.275 278.622 188.275L277.742 183.463Z" fill="#263238"/>
<path d="M280.706 201.106C277.742 223.15 259.19 223.15 259.19 223.15L220.246 206.016C220.246 206.016 217.312 203.444 216.412 197.527C216.099 195.502 216.03 193.077 216.402 190.231C216.402 190.211 216.412 190.182 216.412 190.162C217.654 180.891 224.588 170.925 239.688 167.864C242.7 167.238 246.045 166.906 249.732 166.906C251.414 166.906 253.038 166.984 254.593 167.15C266.378 168.294 274.554 173.781 278.476 182.289C279.336 184.157 279.982 186.162 280.412 188.304C281.224 192.177 281.331 196.461 280.706 201.106Z" fill="#263238"/>
<path d="M187.238 243.747C187.238 243.747 173.419 243.277 168.089 256.744C168.089 256.744 173.967 260.705 181.663 256.764C189.36 252.813 187.238 243.747 187.238 243.747Z" fill="#3E75A3"/>
<path opacity="0.5" d="M187.238 243.747C187.238 243.747 173.419 243.277 168.089 256.744C168.089 256.744 173.967 260.705 181.663 256.764C189.36 252.813 187.238 243.747 187.238 243.747Z" fill="black"/>
<path d="M186.847 250.231C186.847 250.231 182.945 233.243 180.881 233.028C178.71 232.803 178.417 238.211 178.583 241.253L173.654 230.74C173.008 229.351 171.316 228.813 169.976 229.556C165.077 232.246 156.509 240.422 174.593 260.637L186.847 250.231Z" fill="#945959"/>
<path d="M236.92 238.475L234.006 238.094C227.982 237.292 221.996 239.806 218.348 244.666L200.891 267.903L187.238 243.737C187.238 243.737 185.585 260.167 168.089 256.735L186.886 288.353C192.021 296.989 204.187 297.889 210.534 290.084L226.612 270.319L236.92 238.475Z" fill="#3E75A3"/>
<path d="M274.182 292.706C270.27 302.623 269.84 304.559 272.275 309.518C274.691 314.466 276.207 320.902 276.207 320.902C276.207 320.902 258.075 341.224 232.265 333.606L220.676 326.916C218.231 325.508 216.06 323.728 214.231 321.674L217.693 295.395C217.869 294.007 217.732 292.588 217.282 291.268L213.585 280.412C209.898 269.576 212.744 257.586 220.94 249.586L233.4 237.41L266.124 241.537L270.984 242.935C277.596 244.833 281.811 251.317 280.872 258.133C279.258 269.733 276.637 286.476 274.182 292.706Z" fill="#3E75A3"/>
<path opacity="0.5" d="M274.182 292.706C270.27 302.623 269.84 304.559 272.275 309.518C274.691 314.466 276.207 320.902 276.207 320.902C276.207 320.902 258.075 341.224 232.265 333.606L220.676 326.916C218.231 325.508 216.06 323.728 214.231 321.674L217.693 295.395C217.869 294.007 217.732 292.588 217.282 291.268L213.585 280.412C209.898 269.576 212.744 257.586 220.94 249.586L233.4 237.41L266.124 241.537L270.984 242.935C277.596 244.833 281.811 251.317 280.872 258.133C279.258 269.733 276.637 286.476 274.182 292.706Z" fill="black"/>
<path d="M254.446 263.111L247.894 257.527C246.476 256.324 244.529 255.952 242.769 256.559L234.847 259.278L233.781 254.837C233.077 251.923 230.094 250.182 227.209 251.014L223.776 252.001L229.595 240.872C231.493 237.243 234.407 234.26 237.987 232.285L240.265 231.033L259.092 232.001C259.092 232.001 266.114 234.906 266.114 241.537L254.446 263.111Z" fill="#3E75A3"/>
<path d="M259.18 240.314L240.304 255.023V208.187H259.18V240.314Z" fill="#945959"/>
<path d="M240.598 236.451L234.857 259.287L259.102 240.314L240.598 236.451Z" fill="#945959"/>
<path d="M240.304 233.058C247.571 230.251 255.16 224.627 259.19 215.101V208.187H240.304V233.058Z" fill="#703838"/>
<path d="M244.373 173.478C237.214 173.478 221.986 177.468 220.226 196.206C218.466 214.945 220.167 229.478 229.83 230.877C239.502 232.265 261.948 225.273 264.95 201.018C267.972 176.754 251.366 173.478 244.373 173.478Z" fill="#945959"/>
<path d="M233.106 204.138V215.18L226.632 213.194L233.106 204.138Z" fill="#703838"/>
<path d="M240.304 208.294C241.547 208.294 242.554 207.287 242.554 206.045C242.554 204.803 241.547 203.796 240.304 203.796C239.062 203.796 238.055 204.803 238.055 206.045C238.055 207.287 239.062 208.294 240.304 208.294Z" fill="#263238"/>
<path d="M227.747 204.48C227.747 205.722 226.74 206.73 225.497 206.73C224.255 206.73 223.248 205.722 223.248 204.48C223.248 203.238 224.255 202.231 225.497 202.231C226.74 202.221 227.747 203.228 227.747 204.48Z" fill="#263238"/>
<path d="M222.749 199.786L227.15 197.175C227.15 197.175 225.458 195.424 223.776 196.47C222.104 197.527 222.749 199.786 222.749 199.786Z" fill="#263238"/>
<path d="M230.065 219.659C230.065 219.659 233.634 219.982 236.128 218.035C236.128 218.035 236.539 221.224 233.869 221.84C231.189 222.456 230.065 219.659 230.065 219.659Z" fill="#703838"/>
<path d="M226.221 179.854C226.221 179.854 228.911 205.722 264.089 206.534C264.089 206.534 274.72 180.823 253.713 172.47C232.705 164.118 226.221 179.854 226.221 179.854Z" fill="#263238"/>
<path d="M274.446 202.661L274.427 202.652C274.417 202.652 274.417 202.642 274.407 202.642L270.084 200.148C268.451 199.18 266.172 199.307 263.659 200.754C258.671 203.639 254.622 210.642 254.622 216.402C254.622 219.287 255.639 221.312 257.273 222.251L261.517 224.686C261.595 224.735 261.683 224.784 261.762 224.833L261.908 224.911L261.918 224.901C263.522 225.683 265.664 225.498 268.021 224.138C273.009 221.253 277.058 214.251 277.058 208.49C277.067 205.625 276.06 203.61 274.446 202.661Z" fill="#3E75A3"/>
<path d="M274.407 217.396C277.934 211.287 277.935 204.684 274.408 202.648C270.881 200.612 265.162 203.913 261.635 210.022C258.108 216.131 258.108 222.734 261.635 224.77C265.162 226.807 270.88 223.505 274.407 217.396Z" fill="#3E75A3"/>
<path opacity="0.5" d="M274.407 217.396C277.934 211.287 277.935 204.684 274.408 202.648C270.881 200.612 265.162 203.913 261.635 210.022C258.108 216.131 258.108 222.734 261.635 224.77C265.162 226.807 270.88 223.505 274.407 217.396Z" fill="black"/>
<path d="M276.177 208.089L276.168 208.079C276.168 208.079 276.158 208.079 276.158 208.07L273.195 206.358C272.07 205.693 270.525 205.781 268.803 206.779C265.39 208.754 262.622 213.546 262.622 217.488C262.622 219.463 263.317 220.842 264.441 221.488L267.346 223.16C267.405 223.199 267.454 223.229 267.512 223.258L267.61 223.317V223.307C268.715 223.835 270.173 223.718 271.786 222.779C275.199 220.803 277.967 216.011 277.967 212.07C277.977 210.114 277.292 208.735 276.177 208.089Z" fill="#3E75A3"/>
<path d="M277.977 212.079C277.977 216.021 275.209 220.813 271.796 222.788C268.383 224.764 265.615 223.16 265.615 219.219C265.615 215.277 268.383 210.485 271.796 208.51C275.209 206.534 277.977 208.128 277.977 212.079Z" fill="#3E75A3"/>
<path opacity="0.3" d="M277.977 212.079C277.977 216.021 275.209 220.813 271.796 222.788C268.383 224.764 265.615 223.16 265.615 219.219C265.615 215.277 268.383 210.485 271.796 208.51C275.209 206.534 277.977 208.128 277.977 212.079Z" fill="black"/>
<path d="M261.018 168.431C258.231 166.25 254.779 165.096 251.238 165.047C250.955 165.047 250.671 165.038 250.388 165.038C246.466 165.038 242.906 165.399 239.698 166.055C240.344 166.025 240.989 166.035 241.625 166.055H239.698V167.864H241.517C245.41 168.001 249.273 169.067 252.754 171.072C260.226 175.385 264.862 183.424 264.862 192.05V199.747C264.862 201.028 265.957 202.045 267.258 201.908C267.336 201.898 267.405 201.879 267.483 201.859L269.41 201.263C269.283 201.302 269.146 201.331 269.009 201.351C270.212 201.224 271.082 200.128 271.082 198.916V191.776C271.072 178.867 265.488 171.923 261.018 168.431Z" fill="#3E75A3"/>
<path d="M248.705 230.329C247.913 230.329 247.111 230.163 246.368 229.81L240.255 226.984C239.894 226.818 239.727 226.378 239.903 226.016C240.07 225.654 240.51 225.498 240.872 225.664L246.984 228.49C248.578 229.233 250.476 228.872 251.698 227.6L257.527 221.537C257.811 221.243 258.27 221.233 258.554 221.517C258.847 221.801 258.857 222.26 258.573 222.544L252.745 228.608C251.659 229.742 250.192 230.329 248.705 230.329Z" fill="#3E75A3"/>
<path opacity="0.5" d="M248.705 230.329C247.913 230.329 247.111 230.163 246.368 229.81L240.255 226.984C239.894 226.818 239.727 226.378 239.903 226.016C240.07 225.654 240.51 225.498 240.872 225.664L246.984 228.49C248.578 229.233 250.476 228.872 251.698 227.6L257.527 221.537C257.811 221.243 258.27 221.233 258.554 221.517C258.847 221.801 258.857 222.26 258.573 222.544L252.745 228.608C251.659 229.742 250.192 230.329 248.705 230.329Z" fill="black"/>
<path d="M241.859 224.92C241.859 226.495 240.578 227.776 239.004 227.776C237.429 227.776 236.148 226.495 236.148 224.92C236.148 223.346 237.429 222.065 239.004 222.065C240.578 222.065 241.859 223.336 241.859 224.92Z" fill="#3E75A3"/>
<path opacity="0.5" d="M241.859 224.92C241.859 226.495 240.578 227.776 239.004 227.776C237.429 227.776 236.148 226.495 236.148 224.92C236.148 223.346 237.429 222.065 239.004 222.065C240.578 222.065 241.859 223.336 241.859 224.92Z" fill="black"/>
<path d="M271.072 191.786V198.925C271.072 200.138 270.202 201.233 268.999 201.361C267.62 201.507 266.456 200.422 266.456 199.062V191.786C266.456 182.612 261.517 174.065 253.576 169.478C249.302 167.013 244.471 165.869 239.698 166.064C242.906 165.399 246.456 165.047 250.388 165.047C250.671 165.047 250.955 165.047 251.238 165.057C254.779 165.106 258.231 166.26 261.018 168.441C265.488 171.923 271.072 178.867 271.072 191.786Z" fill="#3E75A3"/>
<path opacity="0.5" d="M271.072 191.786V198.925C271.072 200.138 270.202 201.233 268.999 201.361C267.62 201.507 266.456 200.422 266.456 199.062V191.786C266.456 182.612 261.517 174.065 253.576 169.478C249.302 167.013 244.471 165.869 239.698 166.064C242.906 165.399 246.456 165.047 250.388 165.047C250.671 165.047 250.955 165.047 251.238 165.057C254.779 165.106 258.231 166.26 261.018 168.441C265.488 171.923 271.072 178.867 271.072 191.786Z" fill="black"/>
<path d="M260.08 326.329C260.08 326.329 255.346 339.386 272.265 345.215C272.265 345.215 277.791 337.107 272.265 330.466C266.74 323.826 260.08 326.329 260.08 326.329Z" fill="#3E75A3"/>
<path opacity="0.7" d="M260.08 326.329C260.08 326.329 255.346 339.386 272.265 345.215C272.265 345.215 277.791 337.107 272.265 330.466C266.74 323.826 260.08 326.329 260.08 326.329Z" fill="black"/>
<path d="M265.987 326.926C265.987 326.926 249.468 332.99 249.547 335.327C249.635 337.664 256.569 336.08 256.569 336.08L254.036 337.743C251.366 339.484 249.302 342.007 248.119 344.96C247.581 346.31 248.138 347.845 249.429 348.53L255.708 351.855C257.204 352.647 259.053 352.051 259.806 350.535C260.5 349.127 261.752 348.08 263.239 347.581C266.652 346.447 272.989 343.171 275.571 334.241L265.987 326.926Z" fill="#945959"/>
<path d="M270.974 242.945C270.974 242.945 262.182 247.855 266.847 262.681C271.512 277.517 280.305 300.559 280.305 300.559L260.08 326.329C260.08 326.329 266.847 326.779 270.945 332.813C275.043 338.848 272.265 345.215 272.265 345.215L297.361 312.98C302.075 306.916 303.415 298.887 300.921 291.63L290.124 260.217C287.454 252.441 281.292 246.358 273.488 243.776L270.974 242.945Z" fill="#3E75A3"/>
<path d="M122.397 155.248L83.5016 132.793C82.328 132.118 81.2522 132.04 80.4014 132.451C80.2938 132.499 80.196 132.558 80.0982 132.627L71.6385 137.585C71.6581 137.575 71.6776 137.565 71.6874 137.556C70.6214 138.162 69.9466 139.57 69.9466 141.575V184.822C69.9466 188.48 72.1666 192.734 74.9148 194.319L113.81 216.774C115.14 217.537 116.343 217.537 117.233 216.92C117.213 216.94 117.194 216.96 117.164 216.969L125.565 212.04C126.661 211.453 127.355 210.025 127.355 207.981V164.734C127.365 161.086 125.145 156.832 122.397 155.248Z" fill="#3E75A3"/>
<path d="M125.976 159.346C125.076 157.575 123.805 156.059 122.397 155.248L83.5016 132.793C82.328 132.118 81.2522 132.04 80.4014 132.451C80.2938 132.499 80.196 132.558 80.0982 132.627L71.6385 137.585C72.5187 137.057 73.663 137.096 74.9246 137.83L113.82 160.284C115.277 161.125 116.578 162.72 117.487 164.568L125.976 159.346Z" fill="#3E75A3"/>
<path d="M118.788 213.028C118.788 214.964 118.162 216.343 117.174 216.979L125.575 212.05C126.671 211.463 127.365 210.035 127.365 207.991V164.744C127.365 162.964 126.837 161.037 125.976 159.345L117.487 164.568C118.289 166.211 118.788 168.059 118.788 169.771V213.028Z" fill="#3E75A3"/>
<path opacity="0.3" d="M125.976 159.346C125.076 157.575 123.805 156.059 122.397 155.248L83.5016 132.793C82.328 132.118 81.2522 132.04 80.4014 132.451C80.2938 132.499 80.196 132.558 80.0982 132.627L71.6385 137.585C72.5187 137.057 73.663 137.096 74.9246 137.83L113.82 160.284C115.277 161.125 116.578 162.72 117.487 164.568L125.976 159.346Z" fill="black"/>
<path opacity="0.6" d="M118.788 213.028C118.788 214.964 118.162 216.343 117.174 216.979L125.575 212.05C126.671 211.463 127.365 210.035 127.365 207.991V164.744C127.365 162.964 126.837 161.037 125.976 159.345L117.487 164.568C118.289 166.211 118.788 168.059 118.788 169.771V213.028Z" fill="black"/>
<path d="M107.384 182.172C107.384 187.766 105.164 189.683 101.829 187.757C99.9907 186.691 98.69 185.008 98.1228 182.896C97.1741 184.099 95.6288 184.177 93.487 182.945C89.9956 180.93 87.2278 176.138 87.2278 171.424C87.2278 166.73 89.9662 165.126 93.487 167.15C95.2768 168.187 96.6851 169.712 97.6631 171.62V169.771L101.35 171.893V182.025C101.35 183.532 101.917 184.353 102.651 184.774C103.893 185.497 104.656 184.275 104.656 180.646C104.656 174.299 100.597 167.571 94.5824 164.099C88.5383 160.607 84.509 163.033 84.509 169.576C84.509 176.236 88.4601 183.248 94.4748 186.72C96.1765 187.708 98.1032 188.412 99.8147 188.422L100.685 191.796C99.0323 191.815 96.6264 190.955 94.4846 189.713C86.6508 185.194 81.487 176.079 81.487 167.815C81.487 159.649 86.7193 156.568 94.5922 161.126C102.191 165.536 107.384 174.329 107.384 182.172ZM97.7218 177.468C97.7218 174.749 96.2841 172.382 94.3379 171.258C92.3623 170.113 90.9833 170.915 90.9833 173.576C90.9833 176.265 92.3623 178.69 94.3379 179.835C96.2841 180.959 97.7218 180.216 97.7218 177.468Z" fill="#3E75A3"/>
<g opacity="0.9">
<path d="M107.384 182.172C107.384 187.766 105.164 189.683 101.829 187.757C99.9907 186.691 98.69 185.008 98.1228 182.896C97.1741 184.099 95.6288 184.177 93.487 182.945C89.9956 180.93 87.2278 176.138 87.2278 171.424C87.2278 166.73 89.9662 165.126 93.487 167.15C95.2768 168.187 96.6851 169.712 97.6631 171.62V169.771L101.35 171.893V182.025C101.35 183.532 101.917 184.353 102.651 184.774C103.893 185.497 104.656 184.275 104.656 180.646C104.656 174.299 100.597 167.571 94.5824 164.099C88.5383 160.607 84.509 163.033 84.509 169.576C84.509 176.236 88.4601 183.248 94.4748 186.72C96.1765 187.708 98.1032 188.412 99.8147 188.422L100.685 191.796C99.0323 191.815 96.6264 190.955 94.4846 189.713C86.6508 185.194 81.487 176.079 81.487 167.815C81.487 159.649 86.7193 156.568 94.5922 161.126C102.191 165.536 107.384 174.329 107.384 182.172ZM97.7218 177.468C97.7218 174.749 96.2841 172.382 94.3379 171.258C92.3623 170.113 90.9833 170.915 90.9833 173.576C90.9833 176.265 92.3623 178.69 94.3379 179.835C96.2841 180.959 97.7218 180.216 97.7218 177.468Z" fill="white"/>
</g>
<path d="M122.397 232.295L83.5016 209.84C82.328 209.165 81.2522 209.087 80.4014 209.497C80.2938 209.546 80.196 209.605 80.0982 209.673L71.6385 214.632C71.6581 214.622 71.6776 214.612 71.6874 214.603C70.6214 215.209 69.9466 216.617 69.9466 218.622V261.869C69.9466 265.527 72.1666 269.781 74.9148 271.366L113.81 293.821C115.14 294.583 116.343 294.583 117.233 293.967C117.213 293.987 117.194 294.006 117.164 294.016L125.565 289.087C126.661 288.5 127.355 287.072 127.355 285.028V241.781C127.365 238.123 125.145 233.879 122.397 232.295Z" fill="#3E75A3"/>
<path d="M125.976 236.392C125.076 234.622 123.805 233.106 122.397 232.295L83.5016 209.84C82.328 209.165 81.2522 209.087 80.4014 209.497C80.2938 209.546 80.196 209.605 80.0982 209.673L71.6385 214.632C72.5187 214.104 73.663 214.143 74.9246 214.876L113.82 237.331C115.277 238.172 116.578 239.767 117.487 241.615L125.976 236.392Z" fill="#3E75A3"/>
<path d="M118.788 290.065C118.788 292.001 118.162 293.38 117.174 294.016L125.575 289.087C126.671 288.5 127.365 287.072 127.365 285.028V241.781C127.365 240.001 126.837 238.075 125.976 236.383L117.487 241.605C118.289 243.248 118.788 245.097 118.788 246.808V290.065Z" fill="#3E75A3"/>
<path opacity="0.3" d="M125.976 236.392C125.076 234.622 123.805 233.106 122.397 232.295L83.5016 209.84C82.328 209.165 81.2522 209.087 80.4014 209.497C80.2938 209.546 80.196 209.605 80.0982 209.673L71.6385 214.632C72.5187 214.104 73.663 214.143 74.9246 214.876L113.82 237.331C115.277 238.172 116.578 239.767 117.487 241.615L125.976 236.392Z" fill="black"/>
<path opacity="0.6" d="M118.788 290.065C118.788 292.001 118.162 293.38 117.174 294.016L125.575 289.087C126.671 288.5 127.365 287.072 127.365 285.028V241.781C127.365 240.001 126.837 238.075 125.976 236.383L117.487 241.605C118.289 243.248 118.788 245.097 118.788 246.808V290.065Z" fill="black"/>
<path d="M90.0151 251.63L80.6459 236.392V257.038L90.0151 251.63Z" fill="#3E75A3"/>
<path d="M98.7389 256.021L108.098 272.226V251.61L98.7389 256.021Z" fill="#3E75A3"/>
<path d="M82.064 235.718L91.6973 251.366C91.7364 251.405 91.7755 251.444 91.8049 251.493C91.8244 251.532 91.8342 251.571 91.844 251.61L94.6704 256.197L97.0958 255.053C97.135 255.013 97.1741 254.974 97.223 254.945C97.3208 254.886 97.4284 254.857 97.536 254.847L107.277 250.27L82.064 235.718Z" fill="#3E75A3"/>
<path d="M97.3208 256.686L94.7095 257.918C94.602 257.967 94.4846 257.996 94.377 257.996C94.113 257.996 93.8587 257.859 93.712 257.625L90.8464 252.969L81.4283 258.407L106.749 273.028L97.3208 256.686Z" fill="#3E75A3"/>
<g opacity="0.9">
<path d="M90.0151 251.63L80.6459 236.392V257.038L90.0151 251.63Z" fill="white"/>
<path d="M98.7389 256.021L108.098 272.226V251.61L98.7389 256.021Z" fill="white"/>
<path d="M82.064 235.718L91.6973 251.366C91.7364 251.405 91.7755 251.444 91.8049 251.493C91.8244 251.532 91.8342 251.571 91.844 251.61L94.6704 256.197L97.0958 255.053C97.135 255.013 97.1741 254.974 97.223 254.945C97.3208 254.886 97.4284 254.857 97.536 254.847L107.277 250.27L82.064 235.718Z" fill="white"/>
<path d="M97.3208 256.686L94.7095 257.918C94.602 257.967 94.4846 257.996 94.377 257.996C94.113 257.996 93.8587 257.859 93.712 257.625L90.8464 252.969L81.4283 258.407L106.749 273.028L97.3208 256.686Z" fill="white"/>
</g>
<path d="M122.397 78.2008L83.5016 55.746C82.328 55.0711 81.2522 54.9929 80.4014 55.4037C80.2938 55.4526 80.196 55.5112 80.0982 55.5797L71.6385 60.5382C71.6581 60.5284 71.6776 60.5186 71.6874 60.5088C70.6214 61.1152 69.9466 62.5235 69.9466 64.5284V107.776C69.9466 111.433 72.1666 115.688 74.9148 117.272L113.81 139.727C115.14 140.49 116.343 140.49 117.233 139.874C117.213 139.893 117.194 139.913 117.164 139.922L125.565 134.993C126.661 134.406 127.355 132.979 127.355 130.935V87.6972C127.365 84.0395 125.145 79.7852 122.397 78.2008Z" fill="#3E75A3"/>
<path d="M125.976 82.3084C125.076 80.5383 123.805 79.0224 122.397 78.2106L83.5016 55.746C82.328 55.0711 81.2522 54.9929 80.4014 55.4037C80.2938 55.4526 80.196 55.5112 80.0982 55.5797L71.6385 60.5382C72.5187 60.01 73.663 60.0492 74.9246 60.7827L113.82 83.2375C115.277 84.0786 116.578 85.6728 117.487 87.5212L125.976 82.3084Z" fill="#3E75A3"/>
<path d="M118.788 135.981C118.788 137.917 118.162 139.296 117.174 139.932L125.575 135.003C126.671 134.416 127.365 132.988 127.365 130.944V87.6971C127.365 85.9172 126.837 83.9905 125.976 82.2986L117.487 87.5211C118.289 89.1641 118.788 91.0126 118.788 92.7241V135.981Z" fill="#3E75A3"/>
<path opacity="0.3" d="M125.976 82.3084C125.076 80.5383 123.805 79.0224 122.397 78.2106L83.5016 55.746C82.328 55.0711 81.2522 54.9929 80.4014 55.4037C80.2938 55.4526 80.196 55.5112 80.0982 55.5797L71.6385 60.5382C72.5187 60.01 73.663 60.0492 74.9246 60.7827L113.82 83.2375C115.277 84.0786 116.578 85.6728 117.487 87.5212L125.976 82.3084Z" fill="black"/>
<path opacity="0.6" d="M118.788 135.981C118.788 137.917 118.162 139.296 117.174 139.932L125.575 135.003C126.671 134.416 127.365 132.988 127.365 130.944V87.6971C127.365 85.9172 126.837 83.9905 125.976 82.2986L117.487 87.5211C118.289 89.1641 118.788 91.0126 118.788 92.7241V135.981Z" fill="black"/>
<path d="M106.064 117.331C104.568 114.876 103.062 112.421 101.565 109.966C100.881 108.842 100.108 108.186 99.2083 107.991C98.4846 107.834 97.7511 107.678 97.0176 107.453C96.822 107.394 96.509 107.14 96.3721 106.905C93.8782 102.582 91.932 98.152 90.5726 93.6043C90.5139 93.3891 90.553 93.1153 90.6508 93.0077C91.1105 92.548 91.5995 92.1275 92.0885 91.7167C92.6948 91.2082 92.8024 90.3573 92.4601 89.125C91.7364 86.5138 91.042 83.9025 90.3183 81.2912C89.8489 79.5797 88.7926 78.3475 87.5212 78.0345C85.751 77.6042 84.1471 77.6629 82.729 78.2105C82.1324 78.4453 81.8195 78.9832 81.8195 79.9025C82.064 81.6922 82.24 83.4624 82.5725 85.2815C84.9882 98.3965 90.8073 110.485 99.9907 121.507C100.714 122.377 101.438 122.788 102.172 122.758C103.785 122.69 105.164 122.162 106.299 121.164C107.189 120.411 107.101 119.022 106.064 117.331Z" fill="#3E75A3"/>
<path d="M105.947 104.03C105.79 101.418 105.018 98.7192 103.639 95.971C102.641 93.9759 101.419 92.1861 99.9712 90.5822C99.58 90.1519 99.2572 90.015 99.0714 90.3475C98.8856 90.68 99.0616 91.1299 99.443 91.5504C99.5702 91.6971 99.6973 91.8438 99.8245 91.9905C102.661 95.4331 104.284 99.1201 104.695 103.071C104.724 103.374 104.675 103.668 104.783 103.961C104.9 104.274 105.145 104.695 105.36 104.851C105.565 104.998 105.79 104.851 105.966 104.841C105.957 104.44 105.966 104.235 105.947 104.03Z" fill="#3E75A3"/>
<path d="M97.0861 96.0005C98.3868 97.5066 99.0714 99.1105 99.2083 100.851C99.2279 101.115 99.443 101.467 99.5115 101.634C100.108 102.123 100.401 101.956 100.401 101.35C100.401 99.5115 99.1301 96.6166 97.6533 95.0714C97.2817 94.6899 96.9785 94.5726 96.8024 94.8953C96.6362 95.1985 96.7633 95.619 97.0861 96.0005Z" fill="#3E75A3"/>
<g opacity="0.9">
<path d="M106.064 117.331C104.568 114.876 103.062 112.421 101.565 109.966C100.881 108.842 100.108 108.186 99.2083 107.991C98.4846 107.834 97.7511 107.678 97.0176 107.453C96.822 107.394 96.509 107.14 96.3721 106.905C93.8782 102.582 91.932 98.152 90.5726 93.6043C90.5139 93.3891 90.553 93.1153 90.6508 93.0077C91.1105 92.548 91.5995 92.1275 92.0885 91.7167C92.6948 91.2082 92.8024 90.3573 92.4601 89.125C91.7364 86.5138 91.042 83.9025 90.3183 81.2912C89.8489 79.5797 88.7926 78.3475 87.5212 78.0345C85.751 77.6042 84.1471 77.6629 82.729 78.2105C82.1324 78.4453 81.8195 78.9832 81.8195 79.9025C82.064 81.6922 82.24 83.4624 82.5725 85.2815C84.9882 98.3965 90.8073 110.485 99.9907 121.507C100.714 122.377 101.438 122.788 102.172 122.758C103.785 122.69 105.164 122.162 106.299 121.164C107.189 120.411 107.101 119.022 106.064 117.331Z" fill="white"/>
<path d="M105.947 104.03C105.79 101.418 105.018 98.7192 103.639 95.971C102.641 93.9759 101.419 92.1861 99.9712 90.5822C99.58 90.1519 99.2572 90.015 99.0714 90.3475C98.8856 90.68 99.0616 91.1299 99.443 91.5504C99.5702 91.6971 99.6973 91.8438 99.8245 91.9905C102.661 95.4331 104.284 99.1201 104.695 103.071C104.724 103.374 104.675 103.668 104.783 103.961C104.9 104.274 105.145 104.695 105.36 104.851C105.565 104.998 105.79 104.851 105.966 104.841C105.957 104.44 105.966 104.235 105.947 104.03Z" fill="white"/>
<path d="M97.0861 96.0005C98.3868 97.5066 99.0714 99.1105 99.2083 100.851C99.2279 101.115 99.443 101.467 99.5115 101.634C100.108 102.123 100.401 101.956 100.401 101.35C100.401 99.5115 99.1301 96.6166 97.6533 95.0714C97.2817 94.6899 96.9785 94.5726 96.8024 94.8953C96.6362 95.1985 96.7633 95.619 97.0861 96.0005Z" fill="white"/>
</g>
<path d="M321.958 52.3033L331.121 57.5161V54.2691C331.102 54.0344 331.092 53.8095 331.092 53.5845C331.092 53.3596 331.102 53.1444 331.121 52.9293V52.851C331.454 48.5478 334.711 46.9048 338.681 49.1933C340.373 50.1713 341.928 51.7165 343.19 53.5258C344.09 47.6872 348.853 45.5747 354.603 48.8999C360.999 52.5967 366.183 61.5748 366.183 68.9587L366.193 75.9123C366.193 77.0272 366.789 78.0639 367.748 78.6311L373.136 81.79C375.513 83.1886 376.98 85.7412 376.98 88.4991C376.98 90.9637 374.31 92.5089 372.178 91.2669L322.085 62.3278C319.376 60.763 317.713 57.8779 317.713 54.7483C317.713 52.5967 320.06 51.2275 321.958 52.3033Z" fill="#E6E6E6"/>
<path d="M391.816 50.9438L398.486 54.7385V52.3815C398.476 52.2152 398.467 52.049 398.467 51.8827C398.467 51.7164 398.476 51.56 398.486 51.4035V51.3448C398.731 48.2152 401.097 47.022 403.982 48.6846C405.215 49.3986 406.349 50.5233 407.269 51.8338C407.924 47.5893 411.386 46.0538 415.572 48.4695C420.227 51.159 423.992 57.6822 423.992 63.0612V68.1175C423.992 68.9292 424.423 69.6823 425.127 70.0931L429.049 72.3914C430.78 73.4085 431.846 75.2667 431.846 77.2716C431.846 79.0613 429.909 80.186 428.354 79.2863L391.924 58.2397C389.958 57.1052 388.745 55.0025 388.745 52.7238C388.735 51.159 390.437 50.1614 391.816 50.9438Z" fill="#E6E6E6"/>
</svg>
