<svg width="200" height="200" viewBox="0 0 200 200" fill="none" xmlns="http://www.w3.org/2000/svg">
<path d="M163.505 115.998H118.559V119.041H163.505V115.998Z" fill="#FFAE0B"/>
<path d="M113.455 33.0021H93.1359V72.6336H113.455V33.0021Z" fill="#FFD18D"/>
<path d="M130.515 33H112.222V72.6315H130.515V33Z" fill="#D88850"/>
<path d="M104.114 45.9827H101.844V48.6662H104.114V45.9827Z" fill="#A58258"/>
<path opacity="0.8" d="M129.564 56.48H127.441V58.4112H129.564V56.48Z" fill="#C2D8EF"/>
<g opacity="0.2">
<path d="M120.187 56.48H116.646V58.4112H120.187V56.48Z" fill="#333332"/>
</g>
<g opacity="0.2">
<path d="M116.147 56.48H114.323V58.4112H116.147V56.48Z" fill="#333332"/>
</g>
<g opacity="0.2">
<path d="M120.187 43.1172H116.646V45.0484H120.187V43.1172Z" fill="#333332"/>
</g>
<g opacity="0.2">
<path d="M116.147 43.1172H114.323V45.0484H116.147V43.1172Z" fill="#333332"/>
</g>
<g opacity="0.2">
<path d="M120.187 69.8044H116.646V71.7357H120.187V69.8044Z" fill="#333332"/>
</g>
<g opacity="0.2">
<path d="M116.147 69.8044H114.323V71.7357H116.147V69.8044Z" fill="#333332"/>
</g>
<path opacity="0.8" d="M129.564 69.9137H127.441V71.8449H129.564V69.9137Z" fill="#C2D8EF"/>
<path opacity="0.8" d="M129.564 43.2628H127.441V45.194H129.564V43.2628Z" fill="#C2D8EF"/>
<path d="M103.912 33H101.641V35.6835H103.912V33Z" fill="#A58258"/>
<path d="M103.912 59.1898H101.641V61.8733H103.912V59.1898Z" fill="#A58258"/>
<path d="M149.839 33H128.353V72.6315H149.839V33Z" fill="#BA6145"/>
<path d="M161.744 33H147.438V72.6315H161.744V33Z" fill="#D88850"/>
<path d="M137.693 45.9968H135.422V48.474H137.693V45.9968Z" fill="#A86951"/>
<g opacity="0.3">
<path d="M154.854 56.48H153.03V58.4112H154.854V56.48Z" fill="#333332"/>
</g>
<g opacity="0.3">
<path d="M152.533 56.48H150.708V58.4112H152.533V56.48Z" fill="#333332"/>
</g>
<g opacity="0.3">
<path d="M150.282 56.48H148.458V58.4112H150.282V56.48Z" fill="#333332"/>
</g>
<g opacity="0.3">
<path d="M154.854 43.1172H153.03V45.0484H154.854V43.1172Z" fill="#333332"/>
</g>
<g opacity="0.3">
<path d="M152.533 43.1172H150.708V45.0484H152.533V43.1172Z" fill="#333332"/>
</g>
<g opacity="0.3">
<path d="M150.282 43.1172H148.458V45.0484H150.282V43.1172Z" fill="#333332"/>
</g>
<g opacity="0.3">
<path d="M154.854 69.8044H153.03V71.7357H154.854V69.8044Z" fill="#333332"/>
</g>
<g opacity="0.3">
<path d="M152.533 69.8044H150.708V71.7357H152.533V69.8044Z" fill="#333332"/>
</g>
<g opacity="0.3">
<path d="M150.282 69.8044H148.458V71.7357H150.282V69.8044Z" fill="#333332"/>
</g>
<path d="M137.491 33H135.22V35.1233H137.491V33Z" fill="#A86951"/>
<path d="M137.491 59.1918H135.22V62.2898H137.491V59.1918Z" fill="#A86951"/>
<path d="M134.304 33H112.818V72.6315H134.304V33Z" fill="#FFD18D"/>
<path d="M146.209 33H131.904V72.6315H146.209V33Z" fill="#D88850"/>
<path d="M123.853 45.9827H121.582V48.6662H123.853V45.9827Z" fill="#A58258"/>
<g opacity="0.3">
<path d="M139.319 56.48H137.495V58.4112H139.319V56.48Z" fill="#333332"/>
</g>
<g opacity="0.3">
<path d="M136.996 56.48H135.172V58.4112H136.996V56.48Z" fill="#333332"/>
</g>
<g opacity="0.3">
<path d="M134.745 56.48H132.921V58.4112H134.745V56.48Z" fill="#333332"/>
</g>
<g opacity="0.3">
<path d="M139.319 43.1172H137.495V45.0484H139.319V43.1172Z" fill="#333332"/>
</g>
<g opacity="0.3">
<path d="M136.996 43.1172H135.172V45.0484H136.996V43.1172Z" fill="#333332"/>
</g>
<g opacity="0.3">
<path d="M134.745 43.1172H132.921V45.0484H134.745V43.1172Z" fill="#333332"/>
</g>
<g opacity="0.3">
<path d="M139.319 69.8044H137.495V71.7357H139.319V69.8044Z" fill="#333332"/>
</g>
<g opacity="0.3">
<path d="M136.996 69.8044H135.172V71.7357H136.996V69.8044Z" fill="#333332"/>
</g>
<g opacity="0.3">
<path d="M134.745 69.8044H132.921V71.7357H134.745V69.8044Z" fill="#333332"/>
</g>
<path d="M123.853 33H121.582V35.6835H123.853V33Z" fill="#A58258"/>
<path d="M123.853 59.1898H121.582V61.8733H123.853V59.1898Z" fill="#A58258"/>
<path d="M113.455 72.4395H93.1359V112.047H113.455V72.4395Z" fill="#FFD18D"/>
<path d="M130.515 72.4395H112.222V112.047H130.515V72.4395Z" fill="#D88850"/>
<path d="M104.114 85.3978H101.844V88.0813H104.114V85.3978Z" fill="#A58258"/>
<path opacity="0.8" d="M129.564 95.8932H127.441V97.8244H129.564V95.8932Z" fill="#C2D8EF"/>
<g opacity="0.2">
<path d="M120.187 95.8932H116.646V97.8244H120.187V95.8932Z" fill="#333332"/>
</g>
<g opacity="0.2">
<path d="M116.147 95.8932H114.323V97.8244H116.147V95.8932Z" fill="#333332"/>
</g>
<g opacity="0.2">
<path d="M120.187 82.5304H116.646V84.4616H120.187V82.5304Z" fill="#333332"/>
</g>
<g opacity="0.2">
<path d="M116.147 82.5304H114.323V84.4616H116.147V82.5304Z" fill="#333332"/>
</g>
<g opacity="0.2">
<path d="M120.187 109.22H116.646V111.151H120.187V109.22Z" fill="#333332"/>
</g>
<g opacity="0.2">
<path d="M116.147 109.22H114.323V111.151H116.147V109.22Z" fill="#333332"/>
</g>
<path opacity="0.8" d="M129.564 109.329H127.441V111.26H129.564V109.329Z" fill="#C2D8EF"/>
<path opacity="0.8" d="M129.564 82.6759H127.441V84.6071H129.564V82.6759Z" fill="#C2D8EF"/>
<path d="M103.912 98.605H101.641V101.288H103.912V98.605Z" fill="#A58258"/>
<path d="M149.839 72.4395H128.353V112.047H149.839V72.4395Z" fill="#BA6145"/>
<path d="M161.744 72.4395H147.438V112.047H161.744V72.4395Z" fill="#D88850"/>
<path d="M137.693 85.412H135.422V87.8892H137.693V85.412Z" fill="#A86951"/>
<g opacity="0.3">
<path d="M154.854 95.8932H153.03V97.8244H154.854V95.8932Z" fill="#333332"/>
</g>
<g opacity="0.3">
<path d="M152.533 95.8932H150.708V97.8244H152.533V95.8932Z" fill="#333332"/>
</g>
<g opacity="0.3">
<path d="M150.282 95.8932H148.458V97.8244H150.282V95.8932Z" fill="#333332"/>
</g>
<g opacity="0.3">
<path d="M154.854 82.5304H153.03V84.4616H154.854V82.5304Z" fill="#333332"/>
</g>
<g opacity="0.3">
<path d="M152.533 82.5304H150.708V84.4616H152.533V82.5304Z" fill="#333332"/>
</g>
<g opacity="0.3">
<path d="M150.282 82.5304H148.458V84.4616H150.282V82.5304Z" fill="#333332"/>
</g>
<g opacity="0.3">
<path d="M154.854 109.22H153.03V111.151H154.854V109.22Z" fill="#333332"/>
</g>
<g opacity="0.3">
<path d="M152.533 109.22H150.708V111.151H152.533V109.22Z" fill="#333332"/>
</g>
<g opacity="0.3">
<path d="M150.282 109.22H148.458V111.151H150.282V109.22Z" fill="#333332"/>
</g>
<path d="M137.491 72.4395H135.22V74.5385H137.491V72.4395Z" fill="#A86951"/>
<path d="M137.491 98.605H135.22V101.703H137.491V98.605Z" fill="#A86951"/>
<path d="M134.304 72.4395H112.818V112.047H134.304V72.4395Z" fill="#FFD18D"/>
<path d="M146.209 72.4395H131.904V112.047H146.209V72.4395Z" fill="#D88850"/>
<path d="M123.853 85.3978H121.582V88.0813H123.853V85.3978Z" fill="#A58258"/>
<g opacity="0.3">
<path d="M139.319 95.8932H137.495V97.8244H139.319V95.8932Z" fill="#333332"/>
</g>
<g opacity="0.3">
<path d="M136.996 95.8932H135.172V97.8244H136.996V95.8932Z" fill="#333332"/>
</g>
<g opacity="0.3">
<path d="M134.745 95.8932H132.921V97.8244H134.745V95.8932Z" fill="#333332"/>
</g>
<g opacity="0.3">
<path d="M139.319 82.5304H137.495V84.4616H139.319V82.5304Z" fill="#333332"/>
</g>
<g opacity="0.3">
<path d="M136.996 82.5304H135.172V84.4616H136.996V82.5304Z" fill="#333332"/>
</g>
<g opacity="0.3">
<path d="M134.745 82.5304H132.921V84.4616H134.745V82.5304Z" fill="#333332"/>
</g>
<g opacity="0.3">
<path d="M139.319 109.22H137.495V111.151H139.319V109.22Z" fill="#333332"/>
</g>
<g opacity="0.3">
<path d="M136.996 109.22H135.172V111.151H136.996V109.22Z" fill="#333332"/>
</g>
<g opacity="0.3">
<path d="M134.745 109.22H132.921V111.151H134.745V109.22Z" fill="#333332"/>
</g>
<path d="M123.495 98.605H121.224V101.288H123.495V98.605Z" fill="#A58258"/>
<g opacity="0.5">
<path d="M161.709 45.9664H93.1359V46.4922H161.709V45.9664Z" fill="#C9804F"/>
</g>
<g opacity="0.5">
<path d="M161.709 59.1716H93.1317V59.6974H161.709V59.1716Z" fill="#C9804F"/>
</g>
<g opacity="0.5">
<path d="M146.175 85.3796H112.818V85.9054H146.175V85.3796Z" fill="#C9804F"/>
</g>
<g opacity="0.5">
<path d="M128.349 99.1105H93.1317V98.5847H161.709V99.1105H128.349Z" fill="#C9804F"/>
</g>
<g opacity="0.5">
<path d="M161.709 85.9054H92.8729V72.4333H161.756V72.9591H93.3987V85.3796H161.709V85.9054Z" fill="#C9804F"/>
</g>
<path d="M103.912 72.4454H101.641V75.1289H103.912V72.4454Z" fill="#A58258"/>
<path d="M123.853 72.4454H121.582V75.1289H123.853V72.4454Z" fill="#A58258"/>
<path d="M94.8204 112.004H87.959V114.127H94.8204V112.004Z" fill="#FFCE78"/>
<path d="M136.084 112.004H94.7192V114.192H136.084V112.004Z" fill="#CC865E"/>
<path d="M103.235 114.127H98.0417L96.3734 112.004H98.0397L103.235 114.127Z" fill="#72504C"/>
<path d="M113.039 114.127H107.845L106.177 112.004H107.878L113.039 114.127Z" fill="#72504C"/>
<path d="M123.271 114.127H118.078L116.41 112.004H117.945L123.271 114.127Z" fill="#72504C"/>
<path d="M133.269 114.127H128.076L126.407 112.004H127.942L133.269 114.127Z" fill="#72504C"/>
<path d="M114.834 112.004H107.973V114.127H114.834V112.004Z" fill="#FFCE78"/>
<path d="M104.826 112.004H97.965V114.127H104.826V112.004Z" fill="#FFCE78"/>
<path d="M124.842 112.004H117.981V114.127H124.842V112.004Z" fill="#FFCE78"/>
<path d="M166.969 112.004H132.46V114.212H166.969V112.004Z" fill="#C48E47"/>
<path d="M148.794 115.778H144.157V121.8H148.794V115.778Z" fill="#72504C"/>
<path d="M162.714 115.778H158.078V121.8H162.714V115.778Z" fill="#72504C"/>
<path d="M131.805 120.119H94.333V122.378H131.805V120.119Z" fill="#72504C"/>
<path d="M98.8507 116.354H94.333V122.376H98.8507V116.354Z" fill="#B87A53"/>
<path d="M98.8507 122.378L94.3776 116.32H98.8507V120.182L99.5605 121.185L98.8507 122.378Z" fill="#72504C"/>
<path d="M131.807 116.354H127.289V122.376H131.807V116.354Z" fill="#72504C"/>
<path d="M114.448 116.354H109.93V122.376H114.448V116.354Z" fill="#B87A53"/>
<path d="M149.499 120.119H113.789V122.378H149.499V120.119Z" fill="#72504C"/>
<path d="M118.306 116.354H113.789V122.376H118.306V116.354Z" fill="#B87A53"/>
<path d="M135.665 116.354H131.148V122.376H135.665V116.354Z" fill="#B87A53"/>
<path d="M94.3654 122.378H87.9651V115.278L94.3654 116.354V122.378Z" fill="#EFBB67"/>
<path d="M113.819 122.378H107.421V115.395L113.819 116.354V122.378Z" fill="#EFBB67"/>
<path d="M134.85 122.378H128.45V115.337L134.85 116.354V122.378Z" fill="#EFBB67"/>
<path d="M139.273 122.378H134.755V116.354L139.273 115.454V122.378Z" fill="#B87A53"/>
<path d="M166.941 122.378H162.423V116.354L166.941 115.278V122.378Z" fill="#B87A53"/>
<path d="M153.107 122.378H148.589V116.354L153.107 115.043V122.378Z" fill="#B87A53"/>
<path d="M134.85 114.095H87.9651V116.354H134.85V114.095Z" fill="#EFBB67"/>
<path d="M166.941 114.095H134.755V116.354H166.941V114.095Z" fill="#B87A53"/>
<path d="M166.941 120.119H134.755V122.378H166.941V120.119Z" fill="#B87A53"/>
<path d="M118.337 122.378L113.864 116.32H118.337V120.129L119.235 121.29L118.337 122.378Z" fill="#72504C"/>
<path d="M134.757 112.004H127.896V114.148H134.757V112.004Z" fill="#FFCE78"/>
<path d="M123.162 116.301H117.607V119.108H123.162V116.301Z" fill="#FFC943"/>
<path d="M102.032 116.386H96.4766V119.193H102.032V116.386Z" fill="#FFC943"/>
<path d="M107.441 116.386H101.886V119.193H107.441V116.386Z" fill="#F5A838"/>
<path opacity="0.7" d="M126.137 90.3198H124.798H120.834V91.9275H124.798V112.047H127.896V114.095H124.798V115.727H118.992L118.79 116.354H128.45V122.378H134.759V114.095V112.004H131.9V95.3774L126.137 90.3198Z" fill="#4D5D7A"/>
<path opacity="0.7" d="M104.46 115.998V95.0013L101.041 91.1429H99.704H95.7405V92.7506H99.704V115.998V119.042H104.333H119.884V115.998H104.46Z" fill="#4D5D7A"/>
<path d="M101.308 115.998V91.1429H97.8881H96.5494H92.5858V92.7506H96.5494V115.998V119.042H101.178H116.729V115.998H101.308Z" fill="#FFAE0B"/>
<path d="M81.4879 81.7841H79.3726C78.8489 81.7841 78.4202 82.4575 78.4202 83.2805V90.4351C78.4202 91.2582 78.8489 91.9316 79.3726 91.9316H81.4879V81.7841Z" fill="#738086"/>
<path d="M83.3463 91.9134H84.4868C84.9782 91.9134 85.3787 91.2824 85.3787 90.5099V83.1875C85.3787 82.415 84.9762 81.7841 84.4868 81.7841H83.3463V91.9134Z" fill="#FF4343"/>
<path d="M83.6475 81.7841H81.5323C81.0085 81.7841 80.5798 82.4575 80.5798 83.2805V90.4351C80.5798 91.2582 81.0085 91.9316 81.5323 91.9316H83.6475V81.7841Z" fill="#485959"/>
<path d="M50.1474 81.8669H47.0656V128.536H50.1474V81.8669Z" fill="#738086"/>
<path d="M51.0756 131.632C50.2748 131.632 49.6237 130.983 49.6237 130.18V83.5131C49.6237 82.7123 50.2728 82.0612 51.0756 82.0612C51.8764 82.0612 52.5276 82.7103 52.5276 83.5131V130.182C52.5276 130.983 51.8764 131.632 51.0756 131.632Z" fill="#3C4949"/>
<path d="M123.188 91.1428H114.596V92.7505H123.188V91.1428Z" fill="#F5A838"/>
<path d="M123.188 90.3198H118.559V119.041H123.188V90.3198Z" fill="#635227"/>
<path d="M126.608 91.1428H123.14V117.397H126.608V91.1428Z" fill="#FFAE0B"/>
<path d="M128.454 115.998H123.538V119.041H128.454V115.998Z" fill="#FFAE0B"/>
<path d="M123.928 96.9286H91.2228C90.422 96.9286 89.7709 96.2794 89.7709 95.4766C89.7709 94.6758 90.42 94.0247 91.2228 94.0247H123.928C124.729 94.0247 125.38 94.6738 125.38 95.4766C125.38 96.2794 124.729 96.9286 123.928 96.9286Z" fill="#485959"/>
<path d="M123.928 114.825H91.2228C90.422 114.825 89.7709 114.176 89.7709 113.373C89.7709 112.572 90.42 111.921 91.2228 111.921H123.928C124.729 111.921 125.38 112.57 125.38 113.373C125.38 114.174 124.729 114.825 123.928 114.825Z" fill="#485959"/>
<path d="M126.608 90.3198H118.015V94.3966H126.608V90.3198Z" fill="#8D7120"/>
<path d="M91.049 115.713C91.049 117.832 92.782 119.565 94.9013 119.565H120.133C122.252 119.565 123.985 117.832 123.985 115.713V89.139C123.985 87.0197 122.252 85.2866 120.133 85.2866H94.9013C92.782 85.2866 91.049 87.0197 91.049 89.139V115.713Z" stroke="#3C4949" stroke-width="14.3518" stroke-miterlimit="10" stroke-linecap="round" stroke-linejoin="round"/>
<path d="M83.7022 145.225C83.6092 145.219 83.5142 145.215 83.4232 145.215C79.1037 145.215 75.6012 150.716 75.6012 157.504C75.6012 157.759 75.6073 158.014 75.6174 158.269C75.8681 164.703 79.2675 169.797 83.4232 169.797H87.3301C87.3301 169.797 88.507 145.225 87.3301 145.225C85.1198 145.225 83.7022 145.225 83.7022 145.225Z" fill="#333332"/>
<path d="M41.4559 148.659C41.4013 148.659 41.3447 148.659 41.2901 148.663C37.6521 148.8 34.73 153.474 34.73 159.225C34.73 165.061 37.7411 169.795 41.4559 169.795H45.1464V148.659H41.4559Z" fill="#3C4949"/>
<path d="M45.1586 167.607C43.0131 167.607 40.6228 164.165 40.6228 159.227C40.6228 156.853 41.185 154.641 42.2082 152.999C43.0333 151.674 44.0788 150.892 45.0757 150.853L45.1303 150.851H45.1586C47.3022 150.851 49.6925 154.291 49.6925 159.227C49.6925 159.419 49.6884 159.611 49.6803 159.803C49.4983 164.469 47.195 167.607 45.1586 167.607Z" fill="#333332"/>
<path d="M45.1627 153.041C45.2719 153.063 45.7734 153.338 46.3315 154.291C47.0757 155.565 47.5024 157.365 47.5024 159.227C47.5024 159.369 47.4984 159.53 47.4923 159.712C47.4235 161.46 46.9726 163.128 46.2547 164.291C45.7148 165.164 45.2436 165.405 45.1627 165.417C45.0656 165.403 44.552 165.134 43.9837 164.159C43.2396 162.883 42.8129 161.085 42.8129 159.227C42.8129 157.363 43.2416 155.563 43.9858 154.289C44.554 153.318 45.0636 153.055 45.1566 153.041H45.1627ZM45.1587 148.659C45.1041 148.659 45.0474 148.659 44.9928 148.663C41.3548 148.8 38.4327 153.474 38.4327 159.225C38.4327 165.061 41.4459 169.795 45.1587 169.795C48.7339 169.795 51.652 165.413 51.8684 159.882C51.8765 159.664 51.8825 159.445 51.8825 159.225C51.8825 153.389 48.8735 148.659 45.1587 148.659Z" fill="#333332"/>
<path d="M89.047 144.501C88.048 144.501 87.1865 143.745 87.0693 142.73C86.9965 142.095 85.2432 127.015 82.3858 112.138C80.7215 103.468 79.0127 96.5807 77.312 91.6708C74.5942 83.8266 72.762 83.6081 72.7438 83.6081H46.7017C45.6016 83.6081 44.7118 82.7164 44.7118 81.6183C44.7118 80.5202 45.6036 79.6284 46.7017 79.6284H72.7438C75.9309 79.6284 78.5011 82.9408 81.0734 90.3684C82.8367 95.4584 84.5941 102.53 86.2947 111.387C89.1805 126.411 90.9499 141.634 91.0227 142.275L89.045 142.509V142.511L89.2553 144.491C89.1865 144.497 89.1157 144.501 89.047 144.501Z" fill="#3C4949"/>
<path d="M86.5091 167.607C83.6638 167.607 81.0895 163.292 80.8914 158.182C80.8812 157.927 80.8772 157.704 80.8772 157.504C80.8772 154.675 81.587 151.935 82.8266 149.99C83.4414 149.025 84.7376 147.405 86.5111 147.405C86.5637 147.405 86.6163 147.409 86.6688 147.411C89.3119 147.557 92.141 151.646 92.141 157.504C92.141 160.335 91.4312 163.075 90.1936 165.021C89.5768 165.985 88.2806 167.607 86.5091 167.607Z" fill="#333332"/>
<path d="M86.4909 149.595C86.5091 149.595 86.5273 149.597 86.5475 149.599C87.5647 149.656 89.9469 152.412 89.9469 157.504C89.9469 159.929 89.3624 162.242 88.3412 163.846C87.6496 164.932 86.9216 165.417 86.5071 165.417C85.3989 165.417 83.2533 162.639 83.0774 158.103C83.0693 157.874 83.0652 157.678 83.0652 157.504C83.0652 155.079 83.6497 152.77 84.6709 151.166C85.3544 150.095 86.0723 149.607 86.4909 149.595ZM86.5091 145.215C82.1896 145.215 78.6871 150.716 78.6871 157.504C78.6871 157.759 78.6932 158.014 78.7033 158.269C78.9541 164.703 82.3534 169.799 86.5091 169.799C90.8286 169.799 94.329 164.295 94.329 157.506C94.329 150.863 90.9782 145.458 86.7902 145.227C86.6972 145.219 86.6021 145.215 86.5091 145.215Z" fill="#333332"/>
<path d="M91.2512 70.8944H85.9429V75.0541H91.2512V70.8944Z" fill="#738086"/>
<path d="M91.2512 70.8944H90.505H88.0378V160.918H90.505H93.7203H96.1874L93.7203 70.8944H91.2512Z" fill="#738086"/>
<path d="M94.1308 70.8944H88.8225V75.0541H94.1308V70.8944Z" fill="#3B3F42"/>
<path d="M94.1308 70.8944H93.3846H90.9175V160.918H93.3846H96.5999V70.8944H94.1308Z" fill="#3B3F42"/>
<path d="M96.5999 70.8944H92.1146V75.0541H96.5999V70.8944Z" fill="#3B3F42"/>
<path d="M115.386 70.8944H110.078V75.0541H115.386V70.8944Z" fill="#738086"/>
<path d="M115.386 70.8944H114.64H112.171V165.47H114.64H117.853H120.323L117.853 70.8944H115.386Z" fill="#738086"/>
<path d="M83.9853 137.779C83.5667 137.911 83.1016 137.682 82.9499 137.272L76.3029 119.3C76.1512 118.89 76.2442 118.269 76.5112 117.921L79.2472 114.36C79.5142 114.012 79.9348 114.024 80.1815 114.386L86.691 123.887C86.9377 124.249 87.1359 124.902 87.1278 125.341L86.9438 136.061C86.9357 136.499 86.5879 136.964 86.1713 137.096L83.9853 137.779Z" fill="#485959"/>
<path d="M45.2194 140.809C45.2194 142.999 47.011 144.79 49.2011 144.79H66.2222C68.4122 144.79 70.2039 142.999 70.2039 140.809V129.806C70.2039 127.616 68.4122 125.824 66.2222 125.824H49.2011C47.011 125.824 45.2194 127.616 45.2194 129.806V140.809Z" fill="#738086"/>
<path d="M61.0472 148.113C61.2515 148.738 61.9552 149.249 62.6124 149.249H89.7607C90.418 149.249 90.8912 148.716 90.8143 148.062L89.8255 139.705C89.7486 139.051 89.5626 137.996 89.4129 137.355L87.6273 129.699C87.4777 129.06 87.0712 128.991 86.7213 129.547L81.7406 137.504C81.3928 138.06 80.5698 138.518 79.9125 138.518H59.118C58.4608 138.518 58.0907 139.029 58.2929 139.654L61.0472 148.113Z" fill="#738086"/>
<path d="M37.3933 147.787V158.269H84.7335C84.7234 158.01 84.7214 157.759 84.7214 157.504C84.7214 148.794 89.2128 150.726 94.7536 150.726C94.8467 150.726 94.9377 150.73 95.0327 150.736V141.796H85.6071L80.0501 147.785H37.3933V147.787Z" fill="#FFC943"/>
<path d="M79.8114 158.269C80.0965 150.074 83.4696 143.442 87.7951 142.352C88.2077 142.24 88.6344 142.186 89.0631 142.186H95.1358V158.269H79.8114V158.269Z" fill="#8D7120"/>
<path d="M79.8742 160.325C78.9945 160.325 78.2806 159.611 78.2806 158.732V155.272C78.2806 155.249 78.2806 155.227 78.2827 155.207C78.6002 147.49 82.3959 141.339 87.5141 140.242C87.9186 140.149 88.3452 140.093 88.8124 140.073C88.9175 140.067 89.0247 140.067 89.1238 140.067H96.7213C97.601 140.067 98.3148 140.78 98.3148 141.66C98.3148 142.54 97.601 143.254 96.7213 143.254H89.1238C89.0833 143.254 89.0389 143.252 88.9964 143.256C88.9863 143.256 88.9742 143.258 88.964 143.258C88.685 143.27 88.4423 143.3 88.2239 143.353C88.2138 143.355 88.2017 143.357 88.1916 143.361C84.6122 144.119 81.7245 149.256 81.4656 155.312V158.738C81.4656 159.611 80.7538 160.325 79.8742 160.325Z" fill="#485959"/>
<path d="M118.266 70.8944H112.958V75.0541H118.266V70.8944Z" fill="#3B3F42"/>
<path d="M118.266 70.8944H117.52H115.051V165.47H117.52H120.733V70.8944H118.266Z" fill="#3B3F42"/>
<path d="M120.735 70.8944H116.25V75.0541H120.735V70.8944Z" fill="#3B3F42"/>
<path d="M108.351 138.9C108.472 139.32 108.214 139.664 107.777 139.664H96.3573C95.9185 139.664 95.4453 139.324 95.3037 138.91L90.0075 123.363C89.866 122.948 89.6354 122.271 89.4939 121.856L88.6243 119.302C88.4828 118.888 88.5859 118.265 88.8528 117.917L91.5889 114.354C91.8558 114.006 92.4322 113.723 92.871 113.723H101.53C101.969 113.723 102.388 114.077 102.46 114.508L104.048 123.755C104.123 124.186 104.282 124.884 104.404 125.304L105.48 129.011C105.601 129.432 105.801 130.119 105.924 130.54L108.351 138.9Z" fill="#738086"/>
<path opacity="0.5" d="M108.574 139.664H95.5625L89.7527 122.611L105.706 129.777L108.574 139.664Z" fill="#3C4949"/>
<path d="M106.958 138.888C106.636 139.187 106.244 139.096 106.086 138.687L98.5271 119.294C98.3674 118.886 98.4563 118.269 98.7233 117.921L101.459 114.36C101.726 114.012 102.151 114.02 102.404 114.378L112.497 128.633C112.749 128.991 112.796 129.604 112.598 129.994L109.5 136.143C109.304 136.534 108.879 137.098 108.559 137.397L106.958 138.888Z" fill="#3B3F42"/>
<path d="M110.677 158.349H42.1617V162.901H110.677V158.349Z" fill="#333332"/>
<path d="M85.8275 134.18C85.8275 135.104 84.8791 135.365 83.7305 135.678C83.506 135.741 83.2937 135.765 83.0692 135.765C82.0965 135.765 81.409 136.052 81.047 135.328C81.0086 135.242 80.9722 135.14 80.9358 135.017L80.4504 123.723L69.9207 123.822C68.5476 123.822 67.4253 122.7 67.4253 121.327C67.4253 119.954 68.5476 118.831 69.9207 118.831H82.8629C83.9994 118.831 84.9721 119.579 85.2714 120.665L85.7507 133.695C85.8012 133.866 85.8275 134.03 85.8275 134.18Z" fill="#AF3131"/>
<path d="M77.1684 88.4999C72.2302 89.06 70.5416 90.5645 70.5416 90.5645C70.5416 90.5645 72.5416 89.9619 74.5416 89.7354C76.5416 89.5089 77.0431 89.8264 77.0431 89.8264C78.2301 89.3795 82.1067 87.9397 77.1684 88.4999Z" fill="#D88916"/>
<path d="M69.8986 85.8204C70.0078 85.3209 70.39 84.5848 71.6094 84.4837C72.8288 84.3826 72.8672 85.3674 72.758 85.5474C72.6488 85.7274 72.3131 86.1257 72.3131 86.1257L71.1645 86.3846L69.8986 85.8204Z" fill="#FFF1AA"/>
<path d="M77.5243 116.851C77.5243 116.851 77.5486 116.807 77.5769 116.748C77.585 116.809 77.5243 116.851 77.5243 116.851Z" fill="#FFE536"/>
<path d="M76.5981 100.532C76.5597 100.52 76.5355 100.496 76.5112 100.482C76.2362 100.32 75.9369 100.194 75.5992 100.146C75.5365 100.134 75.4738 100.12 75.399 100.12C75.3241 100.107 75.2493 100.107 75.1745 100.107H69.9835C69.8459 100.107 69.7084 100.132 69.5831 100.182C69.3707 100.233 69.1705 100.32 68.9845 100.32C68.1614 100.32 67.5123 100.607 67.124 101.131L67.1604 101.167L67.124 101.131C66.8247 101.505 66.663 102.016 66.663 102.629L66.6751 114.423C66.6751 114.423 68.7337 116.382 73.9126 116.344C77.0835 116.32 77.5567 116.593 77.5688 116.744C77.6072 116.669 77.6558 116.57 77.6558 116.496C77.6679 116.396 77.6436 116.047 77.6436 115.622C77.6436 115.31 77.6558 114.961 77.6821 114.635C77.8701 112.487 77.8196 112.876 77.8823 109.792C77.9571 106.399 78.0198 103.44 78.0198 103.44C78.0198 102.219 77.4717 101.106 76.5981 100.532ZM70.5841 104.627L70.5962 104.639L70.5841 104.627Z" fill="#F7C52C"/>
<path d="M66.665 114.611V115.009C66.665 115.021 66.665 115.021 66.665 115.036V120.542H77.7064V114.524C77.6983 114.451 77.6983 114.401 77.6983 114.366C77.6983 114.516 74.1008 114.7 74.1008 114.7C73.7408 114.576 73.5143 114.378 73.5143 114.087C73.5143 113.224 73.5224 112.111 73.5264 110.973C73.5305 110.014 73.5345 109.036 73.5264 108.17C73.5224 107.832 73.5183 107.511 73.5143 107.212C73.488 106.275 73.5022 106.686 73.5022 106.237H67.116V114.698L66.665 114.611Z" fill="#AF3131"/>
<path opacity="0.5" d="M73.9591 100.488C73.9591 100.623 73.769 101.086 74.2038 100.761C74.2827 100.7 74.3898 100.645 74.5172 100.599C74.8812 100.459 75.409 100.376 75.9126 100.397C76.1229 100.405 76.3291 100.433 76.5152 100.484C76.2402 100.316 75.9348 100.198 75.6032 100.144C75.4313 100.039 75.2432 99.98 75.0369 99.98C75.0369 99.98 74.5415 99.9314 74.22 99.9759C74.2078 99.978 74.1957 99.98 74.1856 99.982V100.103H73.8984C73.9288 100.32 73.9591 100.488 73.9591 100.488Z" fill="#E09F2B"/>
<path d="M88.8827 109.812C91.9721 108.684 93.9223 106.251 93.2385 104.378C92.5547 102.506 89.4959 101.902 86.4064 103.031C83.317 104.159 81.3668 106.591 82.0506 108.464C82.7344 110.336 85.7932 110.94 88.8827 109.812Z" stroke="#3C4949" stroke-width="11.9877" stroke-miterlimit="10" stroke-linecap="round" stroke-linejoin="round"/>
<path d="M76.0097 103.933L77.0248 105.79L78.1087 107.719L79.3342 109.674C79.6052 110.158 80.0844 110.514 80.6163 110.671C80.9601 110.775 81.3261 110.795 81.6739 110.716L89.6819 110.665C90.3209 110.52 90.7213 109.887 90.5777 109.248C90.4321 108.609 89.7972 108.208 89.1602 108.352L81.318 108.366L79.5344 105.418L79.2493 104.908L77.4394 102.182C77.1178 101.612 77.8155 103.094 77.2452 103.414C76.6709 103.735 75.6881 103.363 76.0097 103.933Z" fill="#FFA68A"/>
<path d="M77.0228 105.792L78.1067 107.719L79.5324 105.418L79.2473 104.908L78.495 104.382L77.0228 105.792Z" fill="#E5785C"/>
<path d="M77.1866 101.021C77.6112 101.753 79.4959 105.343 79.4959 105.343L76.6911 107.195L74.6062 103.962L77.1866 101.021Z" fill="#F7C52C"/>
<path d="M70.6326 94.8456C70.4708 94.52 70.3718 95.5533 70.3697 95.43C70.3293 93.2622 68.4709 94.8759 68.3253 92.4755C68.1999 90.429 68.1837 90.4108 68.1271 89.4159C68.0179 87.4402 69.1645 85.3431 73.3889 85.3755C75.7408 85.3937 76.3434 86.3077 76.8732 87.5049C77.8601 89.7354 77.0633 92.6009 77.0633 92.6009L70.6326 94.8456Z" fill="#8E3925"/>
<path d="M74.4344 100.255C74.4344 100.255 74.4668 101.09 73.1079 101.09C71.7489 101.09 70.9016 100.255 70.9016 100.255V96.1155L74.4344 95.9193V100.255Z" fill="#FFB287"/>
<path d="M77.7165 90.7061L77.6882 91.5696L77.672 92.061L77.6134 93.9133C77.5325 96.1944 77.0208 98.3036 74.2504 98.2813C71.484 98.2631 69.2515 95.9214 69.3263 93.7495L70.9501 90.8557C70.9501 90.7769 70.9501 90.696 70.9542 90.6211C71.0108 87.79 72.1614 86.7506 74.1938 86.7506C76.7337 86.7506 77.6376 88.239 77.7145 90.1581C77.7246 90.3401 77.7246 90.52 77.7165 90.7061Z" fill="#FFB287"/>
<path d="M68.301 92.1539C68.483 94.7019 69.114 95.3895 70.1089 95.3895C70.9259 95.3895 76.9157 92.7768 77.306 89.4037C77.3343 89.155 68.301 92.1539 68.301 92.1539Z" fill="#8E3925"/>
<path d="M77.9005 89.3836C77.7225 89.2481 74.0785 91.6586 67.8338 91.7597C67.7206 91.8426 67.5932 91.0377 67.5285 90.2026C67.5063 89.9275 67.4921 89.6485 67.4881 89.3957C67.484 89.3391 67.484 89.2865 67.484 89.2319C67.484 88.8315 67.5346 88.4351 67.6337 88.0509C68.0057 86.6414 69.0755 85.4059 70.9602 84.8194C71.1746 84.7527 71.397 84.694 71.6316 84.6435C71.761 84.6152 71.8945 84.5909 72.032 84.5707C72.0421 84.5707 72.0522 84.5646 72.0583 84.5646C72.3293 84.5242 72.6103 84.4938 72.9076 84.4716C72.9238 84.4696 72.94 84.4696 72.9582 84.4675C73.0714 84.4615 73.1786 84.4574 73.2878 84.4574C73.9571 84.4493 74.2767 84.4817 74.7863 84.6516C75.13 84.7668 75.3343 85.0419 75.3707 85.058C76.6791 85.5353 77.2615 86.2168 77.6699 87.1429C78.1755 88.2895 78.135 89.3633 77.9005 89.3836Z" fill="#F5A838"/>
<path d="M77.7083 119.179V120.538H66.663V114.364L69.0512 114.633L69.8439 118.283L77.7083 119.179Z" fill="#AF3131"/>
<path d="M94.058 139.903C92.9559 139.903 91.9489 139.169 91.6496 138.054L87.8215 123.82H77.7205C76.3414 123.82 75.2251 122.702 75.2251 121.325C75.2251 119.945 76.3434 118.829 77.7205 118.829H89.7345C90.8629 118.829 91.8518 119.587 92.145 120.677L96.4706 136.76C96.8285 138.091 96.0398 139.46 94.7092 139.818C94.4908 139.876 94.2724 139.903 94.058 139.903Z" fill="#AF3131"/>
<path d="M88.3432 121.974H63.4274V127.288H88.3432V121.974Z" fill="#21211F"/>
<path d="M72.5536 129.009L66.7115 148.501C68.0198 150.311 63.848 148.255 62.1028 148.255L40.5621 151.866C38.8189 151.866 37.3872 149.628 37.3872 146.879V128.819C37.3872 126.071 38.8189 123.824 40.5621 123.824H69.0047C70.7498 123.824 71.8014 125.304 73.1179 127.114L72.5536 129.009Z" fill="#FFC943"/>
<path d="M73.1219 127.116L72.5537 129.009L37.3872 141.967V129.009V128.819C37.3872 126.071 38.8189 123.824 40.5621 123.824H69.0047C70.7519 123.826 71.8054 125.306 73.1219 127.116Z" fill="#FED500"/>
<path d="M61.6356 120.853C61.6356 121.632 62.2726 122.269 63.0512 122.269H78.9519C79.7305 122.269 80.3675 121.632 80.3675 120.853V117.664C80.3675 116.886 79.7305 116.249 78.9519 116.249H63.0512C62.2726 116.249 61.6356 116.886 61.6356 117.664V120.853Z" fill="#738086"/>
<path d="M63.6418 102.908C63.0735 102.908 62.6489 103.371 62.6954 103.936L63.5609 114.382C63.6074 114.949 64.1109 115.41 64.6772 115.41H77.5102C78.0784 115.41 78.5253 114.947 78.5051 114.378L78.1371 103.938C78.1168 103.371 77.6356 102.906 77.0693 102.906H63.6418V102.908Z" fill="#738086"/>
<path d="M106.889 81.7841H104.774C104.25 81.7841 103.821 82.4575 103.821 83.2805V90.4351C103.821 91.2582 104.25 91.9316 104.774 91.9316H106.889V81.7841Z" fill="#738086"/>
<path d="M108.85 91.9134H109.991C110.482 91.9134 110.883 91.2824 110.883 90.5099V83.1875C110.883 82.415 110.48 81.7841 109.991 81.7841H108.85V91.9134Z" fill="#FF4343"/>
<path d="M109.152 81.7841H107.037C106.513 81.7841 106.084 82.4575 106.084 83.2805V90.4351C106.084 91.2582 106.513 91.9316 107.037 91.9316H109.152V81.7841Z" fill="#3C4949"/>
<path d="M70.7235 140.809C70.7235 142.999 72.5152 144.791 74.7053 144.791H91.7263C93.9164 144.791 95.7081 142.999 95.7081 140.809V129.806C95.7081 127.616 93.9164 125.824 91.7263 125.824H74.7053C72.5152 125.824 70.7235 127.616 70.7235 129.806V140.809Z" fill="#3C4949"/>
<path d="M77.7305 120.853C77.7305 121.632 78.3675 122.269 79.146 122.269H89.8274C90.606 122.269 91.243 121.632 91.243 120.853V120.328C91.243 119.549 90.6282 118.742 89.878 118.536L82.8973 116.621C82.147 116.415 80.8932 116.247 80.1147 116.247H79.146C78.3675 116.247 77.7305 116.884 77.7305 117.662V120.853Z" fill="#3C4949"/>
<path d="M73.4576 81.8671H70.3757V128.536H73.4576V81.8671Z" fill="#738086"/>
<path d="M77.7123 102.908C77.1683 102.908 76.7598 103.371 76.8063 103.935L77.6719 114.382C77.7184 114.949 78.143 115.41 78.6162 115.41C79.0894 115.41 79.5727 114.957 79.6921 114.4L80.8225 109.157C80.9418 108.603 80.8508 107.725 80.6203 107.207L79.1218 103.851C78.8913 103.331 78.2563 102.908 77.7123 102.908Z" fill="#3C4949"/>
<path d="M86.5515 148.113C86.7557 148.738 87.4595 149.249 88.1147 149.249H115.263C115.92 149.249 116.393 148.716 116.317 148.062L115.328 139.705C115.251 139.051 115.065 137.996 114.915 137.355L113.13 129.699C112.98 129.06 112.573 128.991 112.224 129.547L107.243 137.504C106.895 138.06 106.072 138.518 105.415 138.518H84.6223C83.9651 138.518 83.595 139.029 83.7972 139.654L86.5515 148.113Z" fill="#3C4949"/>
<path d="M114.549 144.501C113.536 144.501 112.671 143.733 112.569 142.704C112.555 142.552 111.061 127.369 108.327 112.401C106.733 103.671 105.039 96.7344 103.291 91.786C100.485 83.8367 98.4685 83.6081 98.246 83.6081H67.1564C66.0563 83.6081 65.1665 82.7164 65.1665 81.6183C65.1665 80.5202 66.0583 79.6284 67.1564 79.6284H98.248C101.641 79.6284 104.438 83.0743 107.049 90.4716C108.867 95.6222 110.616 102.767 112.248 111.709C115.01 126.839 116.517 142.168 116.533 142.319C116.64 143.413 115.839 144.386 114.745 144.493C114.679 144.499 114.614 144.501 114.549 144.501Z" fill="#3C4949"/>
<path d="M74.1108 129.988C73.31 129.988 72.6588 129.339 72.6588 128.536V81.867C72.6588 81.0662 73.3079 80.415 74.1108 80.415C74.9116 80.415 75.5627 81.0642 75.5627 81.867V128.536C75.5627 129.337 74.9136 129.988 74.1108 129.988Z" fill="#3C4949"/>
<path d="M62.8976 147.787V158.269H110.238C110.228 158.01 110.226 157.759 110.226 157.504C110.226 148.794 114.717 150.726 120.258 150.726C120.351 150.726 120.442 150.73 120.537 150.736V141.796H111.111L105.554 147.785H62.8976V147.787Z" fill="#FFAE0B"/>
<path d="M62.8955 146.877C62.8955 149.622 64.3252 151.868 66.0724 151.868L87.6091 148.25C89.3563 148.25 93.5281 150.307 92.2137 148.499L78.1956 127.112C76.8812 125.304 74.3757 123.826 72.6305 123.826H66.0744C64.3272 123.826 62.8975 126.073 62.8975 128.817V146.877H62.8955Z" fill="#FFAE0B"/>
<path d="M85.0915 158.269C84.8063 151.33 81.4333 145.717 77.1077 144.792C76.6952 144.697 76.2685 144.653 75.8398 144.653H62.9158V158.269H85.0915Z" fill="#8D7120"/>
<path d="M105.316 158.269C105.601 150.075 108.974 143.442 113.299 142.352C113.712 142.241 114.139 142.186 114.567 142.186H120.64V158.269H105.316V158.269Z" fill="#8D7120"/>
<path d="M71.0775 148.659C71.0229 148.659 70.9663 148.659 70.9117 148.663C67.2737 148.8 64.3516 153.474 64.3516 159.225C64.3516 165.061 67.3627 169.795 71.0775 169.795H74.768V148.659H71.0775Z" fill="#3C4949"/>
<path d="M74.7801 167.607C72.6345 167.607 70.2443 164.165 70.2443 159.227C70.2443 156.853 70.8064 154.641 71.8297 152.999C72.6548 151.674 73.7002 150.892 74.6972 150.853L74.7518 150.851H74.7821C76.9257 150.851 79.3159 154.291 79.3159 159.227C79.3159 159.419 79.3119 159.609 79.3038 159.801C79.1198 164.469 76.8165 167.607 74.7801 167.607Z" fill="#BCBDBF"/>
<path d="M74.7821 153.041C74.8913 153.063 75.3928 153.338 75.951 154.291C76.6952 155.565 77.1218 157.365 77.1218 159.227C77.1218 159.369 77.1178 159.526 77.1117 159.712C77.043 161.46 76.592 163.128 75.8741 164.291C75.3342 165.164 74.863 165.405 74.7821 165.417C74.6851 165.403 74.1714 165.134 73.6032 164.159C72.859 162.883 72.4323 161.085 72.4323 159.227C72.4323 157.363 72.861 155.563 73.6052 154.289C74.1734 153.318 74.683 153.055 74.7761 153.041H74.7821ZM74.7801 148.659C74.7255 148.659 74.6689 148.659 74.6143 148.663C70.9763 148.8 68.0542 153.474 68.0542 159.225C68.0542 165.061 71.0673 169.795 74.7801 169.795C78.3554 169.795 81.2735 165.413 81.4898 159.882C81.4979 159.664 81.504 159.445 81.504 159.225C81.502 153.389 78.4929 148.659 74.7801 148.659Z" fill="#333332"/>
<path d="M113.734 145.225C113.641 145.219 113.546 145.215 113.455 145.215C109.136 145.215 105.633 150.716 105.633 157.504C105.633 157.759 105.639 158.014 105.649 158.269C105.9 164.703 109.299 169.797 113.455 169.797H119.831C119.831 169.797 121.008 145.225 119.831 145.225C117.621 145.225 113.734 145.225 113.734 145.225Z" fill="#333332"/>
<path d="M119.831 167.607C116.986 167.607 114.412 163.292 114.213 158.182C114.203 157.927 114.199 157.704 114.199 157.504C114.199 154.675 114.909 151.935 116.149 149.99C116.764 149.025 118.06 147.405 119.833 147.405C119.886 147.405 119.938 147.409 119.991 147.411C122.634 147.557 125.463 151.646 125.463 157.504C125.463 160.335 124.753 163.075 123.516 165.021C122.897 165.985 121.603 167.607 119.831 167.607Z" fill="#BCBDBF"/>
<path d="M119.813 149.595C119.831 149.595 119.849 149.597 119.87 149.599C120.887 149.656 123.269 152.412 123.269 157.504C123.269 159.929 122.685 162.242 121.663 163.846C120.974 164.932 120.244 165.417 119.829 165.417C118.721 165.417 116.575 162.639 116.4 158.105C116.391 157.87 116.387 157.678 116.387 157.504C116.387 155.08 116.974 152.77 117.993 151.167C118.675 150.095 119.394 149.607 119.813 149.595ZM119.831 145.215C115.512 145.215 112.009 150.716 112.009 157.504C112.009 157.759 112.015 158.014 112.025 158.269C112.276 164.703 115.676 169.799 119.831 169.799C124.151 169.799 127.651 164.295 127.651 157.506C127.651 150.863 124.3 145.458 120.112 145.227C120.017 145.219 119.922 145.215 119.831 145.215Z" fill="#333332"/>
<path d="M120.581 141.658C120.581 141.658 115.059 141.658 114.63 141.658C114.557 141.658 112.832 141.658 112.755 141.662C112.406 141.676 112.199 141.717 111.86 141.798C107.53 142.716 105.663 148.331 105.378 155.274V158.734H110.351C110.351 156.985 109.556 150.386 113.024 145.876C116.452 141.419 120.387 141.658 120.387 141.658H120.581V141.658Z" fill="#617272" stroke="#617272" stroke-width="15.7507" stroke-miterlimit="10" stroke-linecap="round" stroke-linejoin="round"/>
<path d="M111.138 160.325C110.258 160.325 109.544 159.611 109.544 158.732V155.272C109.544 155.249 109.544 155.227 109.546 155.207C109.864 147.488 113.661 141.337 118.782 140.241C119.026 140.186 119.378 140.147 119.995 140.113C120.12 140.081 120.25 140.065 120.385 140.065H120.387H127.985C128.864 140.065 129.578 140.778 129.578 141.658C129.578 142.538 128.864 143.252 127.985 143.252H121.107C121.099 143.252 121.091 143.254 121.085 143.254C121.075 143.254 121.063 143.256 121.053 143.256L120.915 143.262C119.938 143.302 119.591 143.335 119.471 143.355C119.465 143.357 119.461 143.357 119.455 143.359C115.876 144.117 112.988 149.254 112.729 155.31V158.736C112.731 159.611 112.017 160.325 111.138 160.325Z" fill="#3B3F42"/>
<path d="M118.563 88.8922C118.474 88.8922 118.385 88.8659 118.304 88.8133L116.964 87.9175C116.749 87.7739 116.693 87.4847 116.834 87.2724C116.978 87.058 117.267 87.0014 117.479 87.143L118.82 88.0388C119.034 88.1824 119.091 88.4716 118.95 88.6859C118.861 88.8194 118.713 88.8922 118.563 88.8922Z" fill="#F5A838"/>
<path d="M118.563 86.8356C118.474 86.8356 118.385 86.8093 118.304 86.7568L116.964 85.8609C116.749 85.7173 116.693 85.4282 116.834 85.2138C116.978 84.9994 117.267 84.9428 117.479 85.0844L118.82 85.9802C119.034 86.1238 119.091 86.413 118.95 86.6273C118.861 86.7628 118.713 86.8356 118.563 86.8356Z" fill="#F5A838"/>
<path d="M118.563 84.779C118.474 84.779 118.385 84.7527 118.304 84.7001L116.964 83.8043C116.749 83.6607 116.693 83.3715 116.834 83.1572C116.978 82.9428 117.267 82.8862 117.479 83.0277L118.82 83.9236C119.034 84.0672 119.091 84.3563 118.95 84.5707C118.861 84.7062 118.713 84.779 118.563 84.779Z" fill="#F5A838"/>
<path d="M118.563 82.7223C118.474 82.7223 118.385 82.696 118.304 82.6435L116.964 81.7476C116.749 81.6041 116.693 81.3149 116.834 81.1005C116.978 80.8862 117.267 80.8295 117.479 80.9711L118.82 81.8669C119.034 82.0105 119.091 82.2997 118.95 82.5141C118.861 82.6495 118.713 82.7223 118.563 82.7223Z" fill="#F5A838"/>
<path d="M118.563 80.6637C118.474 80.6637 118.385 80.6375 118.304 80.5849L116.964 79.689C116.749 79.5455 116.693 79.2563 116.834 79.0419C116.978 78.8276 117.267 78.7709 117.479 78.9125L118.82 79.8083C119.034 79.9519 119.091 80.2411 118.95 80.4555C118.861 80.5909 118.713 80.6637 118.563 80.6637Z" fill="#F5A838"/>
<path d="M65.8965 134.311C65.8965 135.852 66.7074 137.102 67.7064 137.102C68.6689 137.102 69.4536 135.945 69.5122 134.483C69.5142 134.424 69.5163 134.368 69.5163 134.309C69.5163 132.768 68.7053 131.519 67.7064 131.519C67.6922 131.519 67.676 131.519 67.6619 131.521C66.6831 131.559 65.8965 132.793 65.8965 134.311Z" fill="#8D7120"/>
<path d="M68.8975 92.0792H65.5062C65.1442 92.0792 64.849 91.6242 64.849 91.0661V85.78C64.849 85.2239 65.1442 84.7668 65.5062 84.7668H68.8975V92.0792Z" fill="#FF8F33"/>
<path d="M69.1382 92.0792H68.2989C67.937 92.0792 67.6417 91.6242 67.6417 91.0661V85.78C67.6417 85.2239 67.937 84.7668 68.2989 84.7668H69.1382V92.0792Z" fill="#FF6315"/>
<path d="M68.9177 84.7649H70.4748C70.8611 84.7649 71.1765 85.2522 71.1765 85.8468V91.0115C71.1765 91.6061 70.8611 92.0934 70.4748 92.0934H68.9177V84.7649Z" fill="#3B3F42"/>
<path d="M45.7228 92.0792H42.3315C41.9696 92.0792 41.6743 91.6242 41.6743 91.0661V85.78C41.6743 85.2239 41.9696 84.7668 42.3315 84.7668H45.7228V92.0792Z" fill="#FF8F33"/>
<path d="M45.9635 92.0792H45.1243C44.7623 92.0792 44.467 91.6242 44.467 91.0661V85.78C44.467 85.2239 44.7623 84.7668 45.1243 84.7668H45.9635V92.0792Z" fill="#FF6315"/>
<path d="M45.741 84.7649H47.2981C47.6843 84.7649 47.9998 85.2522 47.9998 85.8468V91.0115C47.9998 91.6061 47.6843 92.0934 47.2981 92.0934H45.741V84.7649Z" fill="#3B3F42"/>
<path d="M62.9562 148.372H34V158.279H62.9562V148.372Z" fill="#3C4949"/>
<path d="M58.8572 148.372H34V158.279H58.8572V148.372Z" fill="#566666"/>
</svg>
