<svg width="35" height="35" viewBox="0 0 35 35" fill="none" xmlns="http://www.w3.org/2000/svg">
<path d="M26.2636 34.7458C25.4227 34.5647 24.5709 34.4243 23.744 34.1937C22.0386 33.7181 20.4514 32.9534 18.9236 32.0709C14.5915 29.5684 10.8894 26.3108 7.60419 22.5619C5.47313 20.1298 3.61113 17.5101 2.17482 14.6042C1.29063 12.8166 0.595007 10.9607 0.357007 8.96656C0.20782 7.71444 0.248507 6.46975 0.862757 5.32394C1.05613 4.963 1.30813 4.61869 1.59294 4.32469C2.59394 3.29306 3.63038 2.29688 4.63488 1.26875C6.02832 -0.157063 8.19176 -0.0105001 9.50776 1.27137C11.0762 2.79912 12.6188 4.35356 14.1549 5.91369C15.5085 7.28831 15.5186 9.34806 14.175 10.6019C13.888 10.8697 13.5205 11.0823 13.153 11.2271C12.2141 11.5977 11.473 12.1612 11.0644 13.1071C10.7923 13.7375 10.7551 14.3802 10.9331 15.0456C11.4336 16.9181 12.4972 18.4594 13.7756 19.8691C15.1056 21.3356 16.6123 22.5859 18.4039 23.4579C19.1931 23.842 20.0056 24.1828 20.9169 24.0643C22.1524 23.9033 23.0926 23.3074 23.5813 22.1296C23.8836 21.4008 24.2401 20.7331 24.9349 20.2983C26.236 19.4841 27.839 19.6319 28.9879 20.7502C30.6049 22.3248 32.2044 23.9177 33.7759 25.5373C35.0634 26.8647 35.0153 28.9809 33.7098 30.3091C32.6786 31.3583 31.6295 32.3894 30.5913 33.4311C29.855 34.1696 28.9503 34.5437 27.9326 34.6819C27.8469 34.6938 27.7638 34.7244 27.6793 34.7458C27.2068 34.7458 26.7352 34.7458 26.2636 34.7458Z" fill="white"/>
</svg>
