<svg width="50" height="50" viewBox="0 0 50 50" fill="none" xmlns="http://www.w3.org/2000/svg">
<circle cx="25" cy="25" r="25" fill="#2AA81A"/>
<path d="M25.0161 11.2249C17.4316 11.2249 11.2573 17.3939 11.2545 24.9784C11.2531 27.4028 11.8881 29.7697 13.0921 31.8552L11.2249 38.775L18.4326 37.072C20.4424 38.1684 22.7048 38.744 25.008 38.7454H25.0134C32.5966 38.7454 38.7682 32.5751 38.7723 24.9919C38.7751 21.3153 37.3454 17.8586 34.7474 15.2579C32.1494 12.6585 28.6968 11.2263 25.0161 11.2249ZM25.0134 13.9799C27.9558 13.9813 30.7209 15.1285 32.7995 17.2058C34.8782 19.2858 36.0201 22.0496 36.0173 24.9892C36.0146 31.0557 31.08 35.9904 25.0107 35.9904C23.1745 35.989 21.3556 35.528 19.7536 34.6533L18.8254 34.1474L17.8003 34.3896L15.0884 35.0299L15.7502 32.5709L16.0489 31.4678L15.4785 30.4777C14.517 28.8137 14.0081 26.9111 14.0095 24.9784C14.0123 18.9147 18.9483 13.9799 25.0134 13.9799ZM20.1464 18.629C19.9164 18.629 19.5444 18.7151 19.229 19.0595C18.9135 19.4025 18.0237 20.2332 18.0237 21.9248C18.0237 23.6164 19.2559 25.2515 19.4281 25.4815C19.5989 25.7102 21.8066 29.2912 25.3013 30.6687C28.2051 31.8134 28.7948 31.5875 29.4257 31.5297C30.0566 31.4732 31.4611 30.6996 31.7476 29.8966C32.0341 29.0935 32.0348 28.4027 31.9494 28.2608C31.864 28.1175 31.6346 28.0321 31.2902 27.8599C30.9472 27.6877 29.2569 26.8577 28.9415 26.7434C28.626 26.629 28.3953 26.5712 28.1666 26.9156C27.9379 27.2599 27.2808 28.0321 27.0797 28.2608C26.8786 28.4908 26.6788 28.5217 26.3344 28.3496C25.99 28.176 24.8828 27.812 23.5686 26.6411C22.5465 25.7306 21.8569 24.6072 21.6557 24.2628C21.456 23.9198 21.6369 23.7314 21.8091 23.5606C21.9634 23.4063 22.1508 23.159 22.323 22.9579C22.4938 22.7568 22.553 22.6135 22.6673 22.3849C22.7817 22.1562 22.7232 21.9544 22.6378 21.7822C22.5524 21.61 21.8835 19.9121 21.5777 19.2317C21.3201 18.66 21.0481 18.6467 20.8029 18.6371C20.6031 18.6288 20.3751 18.629 20.1464 18.629Z" fill="white"/>
</svg>
