<svg width="28" height="28" viewBox="0 0 28 28" fill="none" xmlns="http://www.w3.org/2000/svg">
<path d="M14.0161 0.224915C6.43156 0.224915 0.257264 6.3939 0.254509 13.9784C0.253132 16.4028 0.88814 18.7697 2.09208 20.8552L0.224915 27.775L7.4326 26.072C9.44238 27.1684 11.7048 27.744 14.008 27.7454H14.0134C21.5966 27.7454 27.7682 21.5751 27.7723 13.9919C27.7751 10.3153 26.3454 6.85861 23.7474 4.25788C21.1494 1.65853 17.6968 0.226292 14.0161 0.224915ZM14.0134 2.97992C16.9558 2.9813 19.7209 4.12848 21.7995 6.20576C23.8782 8.28579 25.0201 11.0496 25.0173 13.9892C25.0146 20.0557 20.08 24.9904 14.0107 24.9904C12.1745 24.989 10.3556 24.528 8.7536 23.6533L7.8254 23.1474L6.80035 23.3896L4.08838 24.0299L4.75023 21.5709L5.04887 20.4678L4.4785 19.4777C3.517 17.8137 3.00814 15.9111 3.00952 13.9784C3.01227 7.91466 7.94826 2.97992 14.0134 2.97992ZM9.14641 7.629C8.91637 7.629 8.54442 7.7151 8.22897 8.05947C7.91352 8.40247 7.02365 9.23321 7.02365 10.9248C7.02365 12.6164 8.25587 14.2515 8.42806 14.4815C8.59887 14.7102 10.8066 18.2912 14.3013 19.6687C17.2051 20.8134 17.7948 20.5875 18.4257 20.5297C19.0566 20.4732 20.4611 19.6996 20.7476 18.8966C21.0341 18.0935 21.0348 17.4027 20.9494 17.2608C20.864 17.1175 20.6346 17.0321 20.2902 16.8599C19.9472 16.6877 18.2569 15.8577 17.9415 15.7434C17.626 15.629 17.3953 15.5712 17.1666 15.9156C16.9379 16.2599 16.2808 17.0321 16.0797 17.2608C15.8786 17.4908 15.6788 17.5217 15.3344 17.3496C14.99 17.176 13.8828 16.812 12.5686 15.6411C11.5465 14.7306 10.8569 13.6072 10.6557 13.2628C10.456 12.9198 10.6369 12.7314 10.8091 12.5606C10.9634 12.4063 11.1508 12.159 11.323 11.9579C11.4938 11.7568 11.553 11.6135 11.6673 11.3849C11.7817 11.1562 11.7232 10.9544 11.6378 10.7822C11.5524 10.61 10.8835 8.91215 10.5777 8.23166C10.3201 7.66 10.0481 7.64671 9.80288 7.63707C9.60314 7.62881 9.37507 7.629 9.14641 7.629Z" fill="white"/>
</svg>
